<svg id="Capa_1" data-name="Capa 1" xmlns="http://www.w3.org/2000/svg" viewBox="0 0 555.49 444.21"><defs><style>.cls-1{fill:#fff;}</style></defs><path class="cls-1" d="M384.85,325c-36.39-2.88-72.82-1.17-109.23-1.4a161.86,161.86,0,0,0-28.53,2.63c-50.92,8.85-90.83,54.79-93,105.65-.89,20.71,6.76,30.2,27.37,30.21q69,0,138.07,0h70.42c23.48,0,46.95.06,70.43,0,18.1-.05,26.77-8.83,26.24-26.87-.16-5.51-1.26-11-2-16.48C478,370.74,433.13,328.81,384.85,325Z" transform="translate(-42.26 -17.9)"/><path class="cls-1" d="M319.74,295.21c50.55.14,83.3-38.59,83.32-83.15,0-46.32-36.6-82.79-82.87-82.67-46.59.12-82.65,36.19-82.68,82.71C236.93,256.06,269.87,295.07,319.74,295.21Z" transform="translate(-42.26 -17.9)"/><path class="cls-1" d="M530.06,188.26c-26.75-6.07-53.93-5.06-81-1.15-4.23.61-8.33,2.2-12.47,3.42-5,1.47-6.84,4.61-5.56,9.82,3.27,13.39,0,26.46-2.9,39.34-4.71,20.9-15.46,38.69-30.84,53.68,3.31,3.05,6.86,2.22,10.13,2.22q82.46.09,164.92,0a56.24,56.24,0,0,0,8.3-.61c12.2-1.82,17.06-7.57,17.07-20C597.8,234.69,569,197.09,530.06,188.26Z" transform="translate(-42.26 -17.9)"/><path class="cls-1" d="M243.16,293.75c-1.58-1.93-2.65-3.41-3.9-4.73-23.51-24.8-32.79-54.47-29.68-88.14.61-6.59-1.89-9-7.74-11.08-20.73-7.21-42.12-5-63.32-5.09-50.58-.16-87,30.65-95.37,80.29-3.67,21.74,3.79,30.6,25.91,30.61q80.6,0,161.18,0C234.18,295.59,238.24,296.22,243.16,293.75Z" transform="translate(-42.26 -17.9)"/><path class="cls-1" d="M166.64,156.17c39.3.1,69.43-29.72,69.5-68.79-.68-40.44-28.4-68.49-68.87-69.46C128.65,17,98,48.49,97.91,87.2A68.71,68.71,0,0,0,166.64,156.17Z" transform="translate(-42.26 -17.9)"/><path class="cls-1" d="M486.62,156.17c39.53.16,69.12-29.37,69.16-69,.54-37.59-26.76-68.66-69-69.26C448,17.36,418.38,48.13,418.35,87S448,156,486.62,156.17Z" transform="translate(-42.26 -17.9)"/></svg>