<svg id="Capa_1" data-name="Capa 1" xmlns="http://www.w3.org/2000/svg" viewBox="0 0 1920 1080"><defs><style>.cls-1{fill:#212529;}</style></defs><path class="cls-1" d="M536.06,445.07q-22.35-.18-44.69,0c-2.84,0-3.46-.73-3.44-3.49.12-23.14,0-46.29.15-69.43,0-3.17-.85-3.84-3.9-3.84q-136.67.14-273.31,0c-3.12,0-3.89.76-3.87,3.87.14,23.14.08,46.29.08,69.43,0,1.8.53,3.51-2.61,3.47-15.29-.18-30.59-.12-45.88,0-2.11,0-2.64-.59-2.63-2.66.06-33.25,0-66.5.1-99.75,0-8.79,4-15.91,11.26-20.89,2.65-1.81,5.74-3,8.63-4.45H517.52c.26.25.47.67.77.73C531,320.65,539,330.26,539,343.47c.1,32.85,0,65.71.09,98.56C539.14,444.53,538.49,445.09,536.06,445.07Z"/><path class="cls-1" d="M309.23,514.06c0,26.86-.05,53.72.07,80.58,0,3-.65,3.72-3.66,3.69-15.42-.17-30.84-.12-46.27-.06-7.26,0-12.31,3.86-13.67,10.34-1,4.86,1,8.75,4.15,12.3q27.07,30.9,54.1,61.83,16.16,18.46,32.31,36.92c7.39,8.42,15.15,8.46,22.5.07q43.08-49.22,86.15-98.44c3.19-3.65,5.5-7.56,4.5-12.59-1.29-6.49-6.37-10.4-13.61-10.43-15.15-.06-30.31-.12-45.47.06-3.42,0-4.6-.57-4.59-4.38q.22-79.59.1-159.18c0-10.57-4.74-15.3-15.32-15.3q-23.13,0-46.27,0c-10.24,0-15,4.85-15,15.2Z"/></svg>