<svg id="Capa_1" data-name="Capa 1" xmlns="http://www.w3.org/2000/svg" viewBox="0 0 1920 1080"><defs><style>.cls-1{fill:#212529;}</style></defs><path class="cls-1" d="M676.72,635.76c-14.89.12-29.79.14-44.68,0-2.84,0-3.46.74-3.44,3.5.12,23.14,0,46.28.15,69.42,0,3.17-.85,3.85-3.91,3.85q-136.65-.13-273.3,0c-3.12,0-3.89-.77-3.87-3.87.14-23.15.08-46.29.08-69.43,0-1.8.53-3.51-2.61-3.48-15.29.19-30.59.13-45.88,0-2.11,0-2.64.59-2.63,2.66.06,33.25,0,66.5.1,99.75,0,8.79,4,15.91,11.26,20.89,2.65,1.81,5.74,3,8.63,4.45H658.19c.26-.26.47-.68.77-.74,12.67-2.6,20.71-12.21,20.75-25.43.1-32.85,0-65.7.09-98.55C679.81,636.3,679.16,635.74,676.72,635.76Z"/><path class="cls-1" d="M449.9,566.77c0-26.86,0-53.73.07-80.59,0-3-.65-3.72-3.66-3.68-15.42.17-30.85.12-46.27.06-7.27,0-12.31-3.86-13.67-10.34-1-4.87,1-8.75,4.15-12.31q27.08-30.89,54.1-61.83,16.15-18.45,32.3-36.91c7.39-8.43,15.16-8.46,22.51-.07q43.08,49.2,86.14,98.44c3.2,3.65,5.51,7.56,4.51,12.59-1.29,6.49-6.38,10.4-13.61,10.43-15.16.06-30.32.12-45.47-.06-3.43,0-4.6.57-4.59,4.38q.23,79.59.1,159.18c0,10.56-4.74,15.29-15.32,15.29H464.92c-10.24,0-15-4.84-15-15.19Q449.89,606.46,449.9,566.77Z"/></svg>