<svg id="Capa_1" data-name="Capa 1" xmlns="http://www.w3.org/2000/svg" viewBox="0 0 166 37.02"><defs><style>.cls-1{fill:#0d6efc;}.cls-2{font-size:16.02px;fill:#fff;font-family:Roboto-Regular, Roboto;}.cls-3{letter-spacing:-0.02em;}</style></defs><path class="cls-1" d="M318.88,258.31H251.7a15.33,15.33,0,0,1-15.76-15.74c0-3.06-.34-6.14.34-9.17a15.42,15.42,0,0,1,15.33-12.1q56.16,0,112.3,0,11,0,22,0a15.4,15.4,0,0,1,15.84,15.83,53.1,53.1,0,0,1-.19,8.17,15.36,15.36,0,0,1-15.18,13Z" transform="translate(-235.86 -221.3)"/><text class="cls-2" transform="translate(10.2 23.19)">No es antiinmig<tspan class="cls-3" x="111.56" y="0">r</tspan><tspan x="116.67" y="0">ante</tspan></text></svg>