<?xml version="1.0" encoding="utf-8"?>
<!-- Generator: Adobe Illustrator 24.3.0, SVG Export Plug-In . SVG Version: 6.00 Build 0)  -->
<svg version="1.1" id="Capa_1" xmlns="http://www.w3.org/2000/svg" xmlns:xlink="http://www.w3.org/1999/xlink" x="0px" y="0px"
	 viewBox="0 0 200.4 147.6" style="enable-background:new 0 0 200.4 147.6;" xml:space="preserve">
<style type="text/css">
	.st0{fill:#FFFFFF;}
	.st1{fill:#0D6EFD;}
</style>
<path class="st0" d="M155.5,4.9H48.2C26.5,4.9,8.9,23.6,8.9,46.7c1.4,17.7-5.1,57.2,9.2,71.9c0,7.5-2.4,19.6-16.8,26.7
	c13.4-3.3,28.3-8.4,39.2-12.5c-0.5,1.8,112.1,0.4,115,0.8c21.7,0,39.3-18.7,39.3-41.8C194.8,64.3,202.9,5.7,155.5,4.9z"/>
<g>
	<g>
		<path class="st1" d="M148.4,124.9c-10,9.5-25.3-5.6-15.2-15.5C143.2,99.3,158.7,115.4,148.4,124.9z"/>
		<path class="st1" d="M175.2,58.6c-4.8,10-16.9,15.5-24.2,26.1c-2.5,5.4-2.1,15.9-10.8,15.2c-14.1-0.8-8.8-21.4-2-27.8
			c5.7-7.4,19.3-13.6,19.8-24c0.7-13.2-19.2-17.7-26.9-9.6c-5.5,4.2-6,20.6-15.5,19.8c-4.8,0.2-9.6-4.3-9.5-9
			C107.9,4.9,192.7,12.4,175.2,58.6z"/>
	</g>
	<path class="st1" d="M92.2,56.3h-55c-1.7,0-3.1-1.4-3.1-3.1v-8c0-1.7,1.4-3.1,3.1-3.1h55c1.7,0,3.1,1.4,3.1,3.1v8
		C95.2,54.9,93.9,56.3,92.2,56.3z"/>
	<path class="st1" d="M92.2,80.8h-55c-1.7,0-3.1-1.4-3.1-3.1V62.4c0-1.7,1.4-3.1,3.1-3.1h55c1.7,0,3.1,1.4,3.1,3.1v15.3
		C95.2,79.4,93.9,80.8,92.2,80.8z"/>
	<path class="st1" d="M57.1,98.8H37.2c-1.7,0-3.1-1.4-3.1-3.1v-7c0-1.7,1.4-3.1,3.1-3.1h19.9c1.7,0,3.1,1.4,3.1,3.1v7
		C60.2,97.4,58.8,98.8,57.1,98.8z"/>
	<path class="st1" d="M91.5,98.8H65.8c-1.7,0-3.1-1.4-3.1-3.1v-7c0-1.7,1.4-3.1,3.1-3.1h25.7c1.7,0,3.1,1.4,3.1,3.1v7
		C94.5,97.4,93.2,98.8,91.5,98.8z"/>
</g>
</svg>
