<svg id="Capa_1" data-name="Capa 1" xmlns="http://www.w3.org/2000/svg" viewBox="0 0 1920 1024.13"><defs><style>.cls-1{fill:#65020c;}.cls-2{fill:#fec59f;}.cls-3{fill:#4f1119;}.cls-4{fill:#650f13;}.cls-5{fill:#4a1219;}.cls-6{fill:#3f111a;}.cls-7{fill:#501c23;}.cls-8{fill:#68121b;}.cls-9{fill:#4e1921;}.cls-10{fill:#531922;}.cls-11{fill:#5f2028;}.cls-12{fill:#5e1a23;}.cls-13{fill:#63151b;}.cls-14{fill:#4b151c;}.cls-15{fill:#490c13;}.cls-16{fill:#611c25;}.cls-17{fill:#410a15;}.cls-18{fill:#5f2129;}.cls-19{fill:#511823;}.cls-20{fill:#4b0b18;}.cls-21{fill:#671523;}.cls-22{fill:#600e17;}.cls-23{fill:#5b232d;}.cls-24{fill:#620a13;}.cls-25{fill:#45030b;}.cls-26{fill:#b2432c;}.cls-27{fill:#9e2d1e;}.cls-28{fill:#f8d2b5;}.cls-29{fill:#9e2c1d;}.cls-30{fill:#cd876f;}.cls-31{fill:#9d2c20;}.cls-32{fill:#b54331;}.cls-33{fill:#cd856f;}.cls-34{fill:#b03e2e;}.cls-35{fill:#60050a;}.cls-36{fill:#570506;}.cls-37{fill:#9a2b1e;}.cls-38{fill:#690f0f;}.cls-39{fill:#530a08;}.cls-40{fill:#4e0201;}.cls-41{fill:#510302;}.cls-42{fill:#560002;}.cls-43{fill:#681012;}.cls-44{fill:#6c1418;}.cls-45{fill:#670b12;}.cls-46{fill:#6b1517;}.cls-47{fill:#660d0f;}.cls-48{fill:#9e2c1f;}.cls-49{fill:#cb8e7f;}.cls-50{fill:#d37d71;}.cls-51{fill:#6c000c;}.cls-52{fill:#c05b4b;}.cls-53{fill:#61070b;}.cls-54{fill:#f2877d;}.cls-55{fill:#cf886f;}.cls-56{fill:#c55551;}.cls-57{fill:#b44334;}.cls-58{fill:#580105;}.cls-59{fill:#690d0d;}.cls-60{fill:#600709;}.cls-61{fill:#d08173;}.cls-62{fill:#d08072;}.cls-63{fill:#d28072;}.cls-64{fill:#d3877a;}.cls-65{fill:#d47d6f;}.cls-66{fill:#c8685c;}.cls-67{fill:#c9685c;}.cls-68{fill:#ca7368;}.cls-69{fill:#ba584b;}.cls-70{fill:#cb907f;}.cls-71{fill:#ba4b36;}.cls-72{fill:#650a11;}.cls-73{fill:#690e17;}.cls-74{fill:#cf8273;}.cls-75{fill:#d0837a;}.cls-76{fill:#f7d1b5;}.cls-77{fill:#f6cdb6;}.cls-78{fill:#67111b;}.cls-79{fill:#4f0203;}.cls-80{fill:#fdc5a0;}.cls-81{fill:#5b0a09;}.cls-82{fill:#f9c2a1;}.cls-83{fill:#691313;}.cls-84{fill:#4d0001;}.cls-85{fill:#f8d1b5;}.cls-86{fill:#6b1212;}.cls-87{fill:#4d1b1a;}.cls-88{fill:#cf796b;}.cls-89{fill:#681513;}.cls-90{fill:#560805;}.cls-91{fill:#4c0001;}.cls-92{fill:#601914;}.cls-93{fill:#ca866a;}.cls-94{fill:#5d160f;}.cls-95{fill:#bc4c35;}.cls-96{fill:#ab4127;}.cls-97{fill:#b7452f;}.cls-98{fill:#ac462b;}.cls-99{fill:#aa482a;}.cls-100{fill:#a94226;}.cls-101{fill:#a84328;}.cls-102{fill:#ae472d;}.cls-103{fill:#a8462a;}.cls-104{fill:#a73f25;}.cls-105{fill:#a63e24;}.cls-106{fill:#cd786a;}.cls-107{fill:#a1381c;}.cls-108{fill:#6a362c;}.cls-109{fill:#8d1e0c;}.cls-110{fill:#643634;}.cls-111{fill:#fec9b1;}.cls-112{fill:#a53a31;}.cls-113{fill:#a33625;}.cls-114{fill:#b84731;}.cls-115{fill:#cc876f;}.cls-116{fill:#5f0b11;}.cls-117{fill:#6a1715;}.cls-118{fill:#671519;}.cls-119{fill:#b5442e;}.cls-120{fill:#b8452f;}.cls-121{fill:#690a0f;}.cls-122{fill:#ed5060;}.cls-123{fill:#cf896f;}.cls-124{fill:#65000b;}.cls-125{fill:#fff;}.cls-126{fill:#cd7f75;}.cls-127{fill:#212529;}</style></defs><path class="cls-1" d="M618.89,841.44a7.06,7.06,0,0,1-.25-.93,3.62,3.62,0,0,0,0-.46,1.71,1.71,0,0,0-.4-.78c-1.18-8.1-5.66-14.08-12-18.85-.77,0-1.35-.87-2.2-.6a1.42,1.42,0,0,0-.51-.43,2.67,2.67,0,0,1-1.75-.75.87.87,0,0,0,.12-.14q-.69-6.71-1.39-13.42h0a24.88,24.88,0,0,0-1.27-6.73h0a17.11,17.11,0,0,0-1.41-5.39c-1-1-.94-2.3-1.19-3.52-1.65-2.17-1.19-5.29-3.28-7.26-.68-2.18-2.66-3.61-3.43-5.66-2.55-6.88-7.57-11.64-13.17-15.95-.86-.66-1.61-1.6-2.91-1.27h0c-.83-2.27-3.07-2.71-4.85-3.74a37.86,37.86,0,0,0-11.67-5.14c-.86-.22-1.82-1.07-2.62.17-3.29-1.17-4-4.33-5.43-7-.78-1.47-1.69-2.87-2.54-4.3a32.36,32.36,0,0,0-5.17-7.54c-8.38-11.34-19.36-19.33-32.17-25a2.5,2.5,0,0,1-2.67-1.14c-2.34-1.1-4.53-2.74-7.37-2-1.24-.84-2.74-.66-4.11-1-1.12-.29.76-.68-.07-.92a12.48,12.48,0,0,0-2.54-.75c-7.38-.63-14-4-20.94-6h0l-4.7-2-4.61-2.84h0a85.74,85.74,0,0,1-8.8-7.92c-3.44-1.67-4.45-1.32-6.22,2a25.1,25.1,0,0,1-2.06,4l-2.59,6.67c-.59.83-1.19.33-1.67-.07a25.45,25.45,0,0,1-3-3.11c-1.29-1.52-2.92-2.55-5-1.95-1.82.53-2.28,2.22-2.76,3.85-.26.91,0,2.08-1.08,2.65a22.14,22.14,0,0,0-1.49,8.83c0,2.46-1,3.7-3.09,4.84a82.51,82.51,0,0,0-26.26,22.26c-6.11,7.84-10.15,16.71-13.17,26.09-1,1-.79,2.32-1.1,3.5,0,.32,0,.64,0,1a3.31,3.31,0,0,0-.33,2.11,2.75,2.75,0,0,1-.5.72,9.56,9.56,0,0,0-.33,2.82,27.6,27.6,0,0,1,.16,4.07l0,1-.74.11c-.2-.18-.41-.35-.63-.53-2.83-.65-5.66-1-8.5,0-10.92,2.93-16.67,9.29-18.14,20.06a18.86,18.86,0,0,0,0,6.66,23,23,0,0,0,2.24,8.2.78.78,0,0,0,.93.15c-.17,1.19.63,2.08,1.12,3.05,1.43,2.92,4.26,4.62,6.22,7.09A22.93,22.93,0,0,0,377,822.52c2.56.89,5.24.69,7.89.82v0h0c-.15,1.06-.3,2.13-.46,3.19h0a46,46,0,0,0-.3,5.61c.18,2.76-.26,5.76,2.2,7.91a2.23,2.23,0,0,0,.66,2.61,2.34,2.34,0,0,1,1.24,2.13,4.25,4.25,0,0,1,2.11,2.72l.55.59c1.9.54,2.9,2.16,4.15,3.47l1.46.93a30.23,30.23,0,0,1,7.28,3.69,5.56,5.56,0,0,0,3.4,1.28,5.23,5.23,0,0,0,3.22,1.36,52.33,52.33,0,0,0,17,5.23h0c1.15,1.19,2.8.89,4.19,1.36,1.12.37,1.13.75.53,1.53a.68.68,0,0,0,0,.67c-.92.65-1.63,1.63-2.87,1.78l-.61.58a92.74,92.74,0,0,0-12.83,12.85h0a2.19,2.19,0,0,0-1.27,2.06c-1.85-.1-2,1.63-2.79,2.63l-.53.66h0l-1.51,2h0a57.61,57.61,0,0,0-11.43,21.26c-2.22,8.12-2,16,3.66,22.9,1.12,1.19,2.58,2.08,3.16,3.72h0c1.68.65.66,1.19-.05,1.74h0c-2.91,2-3.05,4.85-2.16,7.72,1.83,5.93,6.3,8.89,12.19,10,2,.29,3.94-.32,5.89.17,1.64-.58,4.09.86,4.8-2a1.84,1.84,0,0,0-.87-1.23,2.2,2.2,0,0,0-1-.22,9.06,9.06,0,0,1-4.65-.25A16.15,16.15,0,0,1,406.53,946c-.26-.14-.49,0-.72,0,0-.57.37-.9.69-1.27.59-.82,1.46-1.45,1.59-2.56a.75.75,0,0,1-.06-.13l3.67.07,3.44,2c1.16.09,1.28-.4.72-1.28l-2.52-5-.11,0a8.24,8.24,0,0,1,0-5.37c1.22-2.06,2-4.46,4.12-5.88,1.36-.59,3.28-3.12,4-.19a19.29,19.29,0,0,1,.49,8.41c-.17,5,2.65,8.89,4.57,13.13.28.56.59,1.1.82,1.68a5.21,5.21,0,0,1,.05,4.22c-.17.42-.28.86-.44,1.27-.61,1-1.19,1.92-.22,3l.73.73c.71,1.54-.16,3.26.55,4.8.1,1.77-.47,3.63.74,5.24h0a12.87,12.87,0,0,0,1.28,6h0a44.48,44.48,0,0,0,7.53,18c1.11,1.65,3.57,3.24,3.43,4.67-.18,1.89-3.41,1.94-4.88,3.47h0c-2.19,1.31-5,1.85-6,4.71a1,1,0,0,0-.24.58c-1,.53-1.33,1.19-.4,2.09-.54,1.72.15,2.58,1.88,2.72.94.8,2.08.6,3.16.61s.92.66.86,1.32h0a1.21,1.21,0,0,0-.15.33c-1.08,2.3-1.24,4.4,1.47,5.9h0c2.89,1.69,5.25-.66,8-1.1.11,2.71,1.28,4.58,4.16,4.94a5.33,5.33,0,0,0,3.28-.1c5.09-1,9.17-4.12,12.74-7.4,2.73-2.52,4.91-3.35,8.12-1.89a5.94,5.94,0,0,0,4.66-.1h0a2.78,2.78,0,0,0,2.12-1.55c1.94-2,1.22-4,0-5.95h0a11.41,11.41,0,0,0-4.69-6,.29.29,0,0,0-.06-.46h0a4,4,0,0,1-.08-4.68,10.13,10.13,0,0,0,1.47-6h0a2.73,2.73,0,0,0,.26-1.11c.95-4.47.49-9.07,1.12-13.58h0l0,0c3.79-.59,5.7.61,6.26,4.82a32.88,32.88,0,0,0,4.22,12.77h0a15.55,15.55,0,0,0,4,6.65h0a32.24,32.24,0,0,1,2.94,3.14c.62,1.16-.42,1.54-1,2.16-1.11,1.23-2.49,2.25-2.9,4-1,2.12-1.11,4.14.66,5.94h0c2.45,2.71,5.42,2.53,8.54,1.52a6.41,6.41,0,0,0,3.2-.61l2.76,3.9a4.28,4.28,0,0,0,1.93,2.26,6.59,6.59,0,0,0,4.14,2.9,5.79,5.79,0,0,0,4,0h0c1.16-.14,2.51-.75,2.65-1.66.94-6.08,4.28-3.61,7.36-2.21a8.61,8.61,0,0,0,4.85,0c3.2-1.85,2.86-4.92,2.72-7.92a6.06,6.06,0,0,0,5.22-.34,1.51,1.51,0,0,0,1.27-1.2c1.05-1.32,1.56-2.66.18-4.08h0c-.25-1.11-1.26-1.4-2-1.94-2-2.81-4.55-4.84-8.11-5.3h0l-1.37-.77c-.74-2.1,1.48-3.83.72-5.92,1.58-.84.33-2.3.75-3.4a1,1,0,0,0,.7-1,142.37,142.37,0,0,0,1.32-19.14h0c1.07-.65.66-1.73.76-2.66h0a18.46,18.46,0,0,0,1.27-7.39h0c1.06-2.26,3.58-1.67,5.26-2.71a7.6,7.6,0,0,0,4.89-1.31c1.15.07,2.19-.06,2.63-1.35.48-.07,1.05.07,1.3-.54a19.45,19.45,0,0,0,12.73-6.85c1.31.21,2-.82,2.81-1.49A35.58,35.58,0,0,0,573,934.35h0c2.61-3.05,4-6.7,5.17-10.46h0c1.32-3,1.49-6.23,2.22-9.35a10.28,10.28,0,0,0,.32-6.48,1,1,0,0,0-.27-.27,1.49,1.49,0,0,0,0-.21.89.89,0,0,0,0-1.18q-.55-3.66-1.13-7.33c-.17-.42-.34-.85-.52-1.27v-.59a5.92,5.92,0,0,0-.28-1,2,2,0,0,0-.68-1.87c-.08-.58.19-1.28-.24-1.73,0-.23.07-.45.1-.67a4.66,4.66,0,0,0-.74-2.76c-.1-.31-.19-.61-.28-.92.47-3-1-5.46-2.17-8-.23-1.31-1-2.52-.63-3.92a34.66,34.66,0,0,0,8.59-8.06,2.83,2.83,0,0,1,1.88-2.12c2.25-1.18,1.71,1.1,2.08,1.86,3.16,6.48,8.82,8.82,15.51,6.26.53-.7,1.38-.86,2.07-1.3a1.26,1.26,0,0,0,.57-.14,4.25,4.25,0,0,1,2.78-1.16c1.33-1.1,2.25-2.64,3.8-3.5a14.87,14.87,0,0,0,4-6c-.43-1.06.32-1.8.74-2.62.74-1.27.59-2.84,1.41-4.08.28-.8.55-1.61.83-2.41h0l.52-.34.21-1.36A79.6,79.6,0,0,0,618.89,841.44Zm-69.36-87.89a8.41,8.41,0,0,0,2.83.1,1.62,1.62,0,0,0,.89.5c4.12.84,7.83,2.92,11.88,3.94a4.73,4.73,0,0,0,1-.14l.18.11c.8.63,2.14.35,2.58,1.57l1.88,1.2h.1a2,2,0,0,0-.11.26,2.28,2.28,0,0,0,1,1.66A58.24,58.24,0,0,1,582.06,772a2.59,2.59,0,0,0,2.23,1.06l0,0,1.29,2.5a2.86,2.86,0,0,1,.84.62,8.91,8.91,0,0,1-.11,1.23,4,4,0,0,0,.13,2,5.3,5.3,0,0,1-.79.47c-1.7,1.15-3.55,2.11-4.76,3.87.32.38.1.62-.16.85l-.36,0c-1,.09-1.83.54-2.78.68a5.88,5.88,0,0,0-.91.26c-1.18.53-2.45.28-3.67.41-3.09.85-6.4.83-9.31,2.4-1,.52-1.08-.29-1.27-.92a4.48,4.48,0,0,0-.35-.85h0a3.55,3.55,0,0,1,2.37-1.21,1.18,1.18,0,0,0,1.07-1.41c-.13-.76-.74-1-1.42-1.19a4.09,4.09,0,0,0-4.12,1.6c-1.07,1.23-2.05,2.55-3.07,3.82a6.4,6.4,0,0,0-2.41.75,3.51,3.51,0,0,1-2.89-.08c-1.79-.23-2.83-1.89-4.49-2.37l-.11-2.46a2.54,2.54,0,0,1,.44-1.78,12.53,12.53,0,0,0,2.59-5.76l-.06-.48c1-1,2.12-1.94,3.13-3a1.44,1.44,0,0,0,.4-1.15c-.19-.72-.83-.55-1.35-.39s-1.26.43-1.88.64c-.58.6-1.16,1.19-1.75,1.78a2.56,2.56,0,0,0-.73-.14c-2.48,1.35-4.39,3-3.67,6.19-.77.21-1.14,1.06-1.71,1.58a1.08,1.08,0,0,0,0-.19,9,9,0,0,0-.71-2.55c-1.31-4.91-.53-6.92,3.85-9.66.65-.41,1.37-.75,1.46-1.65l0,0h.28l.27-.07c1.14-2.71.77-3.32-2.47-4a3.41,3.41,0,0,0-.93.37,1.91,1.91,0,0,1-.28.15,26.36,26.36,0,0,0-6.4.12.92.92,0,0,0-.36-.43c-3.22-.54-6.58.89-9.72-.72l-.72-.25a6.1,6.1,0,0,1,.29-3.25h0l3.1-3.16v-.08c2.28.32,4-.78,5.59-2.22,1.89-1.6,4.17-.92,6.31-1.05C544.53,753.1,547.07,752.72,549.53,753.55ZM383.85,793.9a26.41,26.41,0,0,0,1.08,4.53c.75,2.22,1.24,4.51,2.12,6.69,1.88,4.66,1.86,4.67-2.89,5.22l-.17.09-3-.56c-7.87-5.16-8.86-12.25-2.63-18.89a1.84,1.84,0,0,1,2.07-1.17,1,1,0,0,0,.52-.14,1.52,1.52,0,0,0,.21.33A4.63,4.63,0,0,1,383.85,793.9Zm3.2,24.86c-.45,0-.94,0-1.41,0-1.51,0-3-.06-4.55,0-1.2.17-2.48.11-3.36,1.2-.2-.62-1.73-.39-1.32-1.39a3,3,0,0,0-1.9-1.23c-7.77-2.34-12.29-7.87-15-15.21-.48-.61-.6-1.6-1.45-1.78a3.39,3.39,0,0,0,0-.78,11.62,11.62,0,0,1,.07-5.59c.53-1.18.13-2.73,1.42-3.61a5.2,5.2,0,0,0,1.42-2.2c2.18-4.89,5.49-8.52,10.9-9.82,2-.6,4-1.33,6.19-.84a6.25,6.25,0,0,0,1,.18,9.89,9.89,0,0,0,2.37,0s0,.08,0,.12a4.58,4.58,0,0,0,.35.83c.79,1.55-.32,3.69.9,5.11a1.78,1.78,0,0,1-1,1.1c-.47.33-.92.68-.84,1.38.14.17.35.21.51.31a.9.9,0,0,1-.58-.17,2.64,2.64,0,0,0-1.4-.55c-5.24,1.35-7.91,5-8.86,10.1a3.88,3.88,0,0,0,.37,1.34.14.14,0,0,0,0,.06,13.08,13.08,0,0,0,0,3.95s0,.07,0,.11a4,4,0,0,0-.43,1.31,7.9,7.9,0,0,0,2.84,6l.53.23c.35,3.38,3.26,3.61,5.82,4.29l4.6,1.11v0c.93,1.76,3.48.23,4.34,2.15,0,.2.06.38.08.55Zm7.56,6.53a16.53,16.53,0,0,0-.23,19.84c-5-5.07-6.74-11.7-5.13-19.29,1.2-3.58,2.77-6.73,6.81-8,3.09-1,3.28-1.85,1.55-4.62a65.89,65.89,0,0,1-9.53-29.61c-.15-1.66-.2-3.35-1.43-4.68l-.2-.11c1.56-1.77.83-4,1.22-6.06.45-2.18.09-4.45.81-6.59.49-2.11.65-4.27,1.24-6.36a18.47,18.47,0,0,1,.7-2.3,23.34,23.34,0,0,1,1.41-4,59.76,59.76,0,0,1,5.86-11.93,32.34,32.34,0,0,1,3.18-5.09,82.4,82.4,0,0,1,27.79-23.62c1.36-.73,2.85-1.35,3.44-3a27.8,27.8,0,0,0,.23-5.24,11.26,11.26,0,0,1,.35-4c.06-.22.11-.43.16-.65,1.15-5.84,1.31-5.9,5.9-2,2.83,2.4,4.18,2.41,7.25,0,1.14-1.4,1.37-3.22,2.15-4.79s1.19-3.09,1.79-4.63c.81-2.06,1.77-1.87,3.1-.5a26.7,26.7,0,0,0,7.51,5.89,2.7,2.7,0,0,0,.94,0,1.31,1.31,0,0,0,.21-.08c1,3,3.87,3.27,6.39,4a1.33,1.33,0,0,0,.59-.19c.76,1.31,2.2,1.69,3.49,2.2a124.23,124.23,0,0,0,18.93,5.49c19.44,4.35,35.42,14.22,47.62,30.07a3.25,3.25,0,0,0,2,1.41h0c.13,2,.82,3.58,2.78,4.33,0,.08-.07.16-.1.25a4.65,4.65,0,0,0,1.19,3.54c.24.86,2.39,1.76,0,2.57a31.56,31.56,0,0,0-9.77,1.57c-2,1-4.59.9-5.92,3.14l-1.64-.89h0l-.7-.7h0a2.72,2.72,0,0,0-1.71-1.92c0-.25-.05-.53-.08-.85a13.2,13.2,0,0,0-4.78-4.09c-17.38-10.41-39.85-6.15-50,9.84-1.15-1.56-2.18-3.14-3.44-4.54a24.93,24.93,0,0,0-4.24-3.77c-15-10.63-34.18-9.18-48.63,3.7-3.32,3.51-6.92,6.8-8.8,11.41a1.09,1.09,0,0,0,.12.57l-.05,0c-1.48.47-1.9,1.87-2.61,3a54.09,54.09,0,0,0-5.81,29.78,89.93,89.93,0,0,0,4.86,21.49c.72,2.07.6,3.6-1.39,4.88A28,28,0,0,0,394.61,825.29ZM432,861.63c-.47-1.16-1.71-1.2-2.72-1.44a130.63,130.63,0,0,1-16.94-5.36c-.92-.36-1.87-.85-2.86-.33a2,2,0,0,0-.78-1.25c-5.23-3.54-8.63-8.59-11.57-14-1.29-1.83-1.13-3.92-1.08-6,.75-5.61,4.68-8.6,9.23-11,2.35-1.21,3.09-2.62,1.78-5-2.61-4.82-3.78-10.14-5.15-15.38a11.06,11.06,0,0,1-.7-3.31,5.29,5.29,0,0,0-.27-.94,12.7,12.7,0,0,1,.32-6.33,19.47,19.47,0,0,0,0-4.64,8.45,8.45,0,0,1-.26-5.21,5.1,5.1,0,0,0,.21-.94,19.89,19.89,0,0,0,.2-2.17,1.3,1.3,0,0,0,.49.06,6.74,6.74,0,0,0,.55-1.19c4.12-15,12.36-26.6,27.39-32.38,1.12-.43,2-1.91,3.49-1,1.13-1.45,2.58-1,4-.66l5.41,0c1.09-.21,2.18-.58,3.21.19.62.22,1.24.47,1.88.65,10.52,3,18.84,8.28,20.38,20.34,0,.26.4.48.62.72,1.31,1.1,1.92-.42,2.85-.77h0a21.51,21.51,0,0,1,5.76-12.42c9.81-10.08,28.4-12.48,40.69-3.34a3.66,3.66,0,0,0,2.46,2.06l.91.07,2.4,2.1.55.51c0,.05-.07.1-.1.16.16,1.69-.9,3.19-.78,4.88l0,0c-.55.69-.56,1.64-1,2.38.36,1.37.1,3,1.36,4h0a3.84,3.84,0,0,0,2.55,2.26h0a4.74,4.74,0,0,0,2.81,1c1.94,1,4.55-1,6.16,1.42h0c.38,1.3.77,2.6,1.16,3.89a5.81,5.81,0,0,0,0,3.73c-.26,2.68,1.29,4.82,2.15,7.17.18,2.35.37,4.7.55,7.06-.62,1.39.08,3-.54,4.34.06,1.86-1.41,3.65-.61,5.54v0a4.58,4.58,0,0,0-.27,1c-.2,5.23-2.5,9.89-4.26,14.64-1,2.65-.73,3.93,2,4.75a11,11,0,0,1,3.75,2.14c3.22,2.66,5.91,6.21,5,10.32a17.27,17.27,0,0,1-8,11.44c-6.62,9.44-16.7,12.36-27.21,14.74-10,2.26-20.05,3.36-30.14,4.52-6.28,1-12.61.17-18.92.46a7.77,7.77,0,0,0-2,.27l-14.62-1.35-.31-.06a3.42,3.42,0,0,0-.81-.35,2.52,2.52,0,0,0-.47-.06,10.53,10.53,0,0,0-3.08-.27s-.06-.11-.09-.15a2.23,2.23,0,0,0-.67-.34,3.12,3.12,0,0,0-.86-.06,24.6,24.6,0,0,0-3.31-.56,3,3,0,0,0-.68-.53A2.13,2.13,0,0,0,432,861.63Zm5.9,98.06a19.38,19.38,0,0,0,5.13,3.92l.15-.13a.17.17,0,0,1,0,.07c.79,1.18,2.07,1.66,3.24,2.31a79.46,79.46,0,0,0,22.62,8.1c1.61.33,3.46.45,3.5,2.81.06,5.26.14,10.49-1.72,15.55a9.55,9.55,0,0,1-5,5.55,19.09,19.09,0,0,1-20.32-3.22,30.43,30.43,0,0,1-6.92-8.82c-2.36-4.43-3.61-9.26-5.23-14a2.77,2.77,0,0,0-.55-.63c.89-1.37.15-2.76-.23-4.13a1.76,1.76,0,0,0-.84-.8l.12-.16c.74-2,.44-4.14.28-6.23-.12-1.47-1-2.95-.06-4.46,2.15.84,3.35,3.28,5.8,3.66A.9.9,0,0,0,437.94,959.69Zm36.79,46.83c.42.75,1.22,1.57.51,2.39s-1.64.28-2.46,0c-1.72-.62-3.14-2.21-5.23-1.54-5.1,4.33-10.27,8.56-16.15,11.83-.43.47-.81,1.56-1.43.15.11-1,.33-2,.54-3,.34-1.53.79-3.18-.71-4.34s-3-.4-4.41.3c-1.65.82-3.15,2-5.21,2.29a3,3,0,0,1,.7-1.72c1.1-1.57,3.4-2.88,2.05-5.17s-3.78-1-5.8-.74c-.44.06.11,0-.32.09a7,7,0,0,1-3,.42,1.81,1.81,0,0,1-.58-.08,1.46,1.46,0,0,0,.16-.19c1.92-.45,3.82-.92,4.57-3l.33,0A13.66,13.66,0,0,0,442,1003c2.06-1.33,4-.68,6,.23,6.23,2.81,12.59,2.52,18.95.51,1.3-.42,2.69-.9,3.27-2.24a6.2,6.2,0,0,0,1.87-.07h0a2.06,2.06,0,0,0,.37,2.24A26.56,26.56,0,0,1,474.73,1006.52Zm3.09-32.18a.71.71,0,0,1,.2-.29Zm51.37,28a1.06,1.06,0,0,0,.12.34c2.26,1.29,4.05,3.55,6.91,3.6h0c-.75,2.41-2.17.49-3.19.38-1.54-.16-3.16-.94-4.43.4s-.66,2.94-.09,4.43c.16.41.38.81.51,1.24.26.83.82,1.77-.07,2.46s-1.72,0-2.5-.38c-1.89-1-3.58-2.31-5.72-2.74a2.23,2.23,0,0,0-.72.13c-1.65-.56-2-.24-2.27,1.61-.17,1.07-.31,2.15-.44,3.23a6.43,6.43,0,0,1-.73,1.37,3.17,3.17,0,0,0-.87,1.85c.32.36.4.62,0,.63-.66-.53-1.66-.45-2.22-1.14-1.76-1.5-2.5-4.12-5-4.76.45-2.16-.73-3.39-2.54-4.27a4.94,4.94,0,0,0-3.06.78,1.3,1.3,0,0,0-.32-.57,3.17,3.17,0,0,0-2.63.39,5.37,5.37,0,0,0-.78.63l-2.41.24c-.12-.17-.24-.35-.37-.52-1.27-2.46.28-3.79,2-5.06,2.65-1.13,4.81,1.43,7.37,1a3,3,0,0,0,1.16-.53,28.45,28.45,0,0,0,6.39-.07c0-.14,0-.29,0-.44a4.16,4.16,0,0,0,2.72.65,2.48,2.48,0,0,0,1.36-.65c-.12-.13-.21-.24-.29-.34l.21.11a13.62,13.62,0,0,0,8-4.23,2,2,0,0,1,.23-.06A20,20,0,0,0,529.19,1002.39Zm-16.93,4.07a4.34,4.34,0,0,0,.5-.2l.18.14.09.06Zm27.86-50.29a1.07,1.07,0,0,1,.36-.25Zm18.71-43.8a39.13,39.13,0,0,1-5.39,12.81h0c-2.93,2.67-5,6.49-9.26,7.47l0-.06q0-3-.07-6a45.42,45.42,0,0,0-1.8-12.31,77.25,77.25,0,0,0-3.71-14.51h0c-.35-2.29-1.75-4.31-1.71-6.7a56.38,56.38,0,0,0,13.33-3.62c1.38-.59,2.89-1.69,4.64-1l4,15.5h0c0,2.8,0,5.61,0,8.42Zm-4.57-29.81c-6.43,2.92-13.27,4.73-20,6.9a12.43,12.43,0,0,0-4.24,2c-1.19,1-1.47,2.2.09,2.91,2.25,1,2.84,3,3.46,5a158.53,158.53,0,0,1,4.31,16.21c1.44,7.61,2.3,15.26,1,23-.48,2.75-.83,5.58-2.92,7.72a16.48,16.48,0,0,0-3.64,6.71,99,99,0,0,0-4.68,27.32,45.15,45.15,0,0,1-2.24,12.83,12.88,12.88,0,0,1-8.2,8.26c-1.56.58-3.28.76-4.66,1.82a3.08,3.08,0,0,0-.25.27c-1.07-.92-2.46-.64-3.73-.82-6.67-.93-11.8-4.06-14.74-10.31-3.38-5.66-4.58-12-5.66-18.34a29.22,29.22,0,0,0-1.93-7.73c-.8-1.71-1.9-2.91-3.74-1-1.16,4.52-1.15,4.48-6,3.88a81.81,81.81,0,0,1-27.67-8.59c-1.08-.56-2.14-1.24-3.45-1l-.34.17-4.58-3.34c0-.11,0-.22,0-.34-.27-2.05-2.64-2.52-3.26-4.32a38.36,38.36,0,0,1-10.9-20.35c-1.7-8.65.55-16.67,3.33-24.61,4-11.39,9-22.42,11.35-34.36.17-3.09,1.79-3.83,4.71-3.33a124,124,0,0,0,17,1.49A178.15,178.15,0,0,0,516,864.55a6.35,6.35,0,0,1,3.29-.26c8.3-1.81,14.37-7.08,19.79-13.11a57.33,57.33,0,0,0,13.32-27.43c1.67-7.57,1.58-15.23,1.31-22.91a9.85,9.85,0,0,1-.55-3.61c.14-1.19.53-2.1,1.89-2.37,7.4-1.48,14.4-4.51,22-5.16,3.78-.32,7.76-1.2,10.41-4.57a2.28,2.28,0,0,0,.43-1.48h0l.07,0c2.44,1.53,3.08,4.14,4,6.59A48.41,48.41,0,0,1,595.72,805a8.45,8.45,0,0,1,.48,3.49,4.24,4.24,0,0,0,.6,2.52l.06.06v.55c-.05,4.82.21,9.65-.67,14.44a12.27,12.27,0,0,1-.65,4.81,24.85,24.85,0,0,0-.62,2.58C589.85,856.8,575.78,872.79,554.26,882.56Zm57-23.28a17.72,17.72,0,0,1-10.37,10.58c-3.57,1.36-6.56.71-8.74-1.91-2.63-3.14-2.86-6.27-.73-9.71a79.53,79.53,0,0,0,10.65-33,5.83,5.83,0,0,1,.53-2.21,4.83,4.83,0,0,0,1.8,1.67,22.64,22.64,0,0,1,6.14,6.79A14.55,14.55,0,0,1,612,834.3a2.14,2.14,0,0,0,1.31,1.1,6.92,6.92,0,0,0,.11,3.93A31.1,31.1,0,0,1,611.24,859.28Z"/><path class="cls-1" d="M607.33,871.64h0Z"/><path class="cls-2" d="M544.7,831.32a14.34,14.34,0,0,0-9.79-10.1c-1.39-.47-2.71-1-1.78-2.76,2.64-5.14,3.74-10.8,5.58-16.21a.93.93,0,0,1-.15-.45,29.76,29.76,0,0,0,1-6.21c.3-1.39.14-2.83.53-4.2a32,32,0,0,0-.34-7c-.4-2.55-2-4.72-2.21-7.32a5.84,5.84,0,0,1-.14-3.87,9,9,0,0,0-1.4-4.46,3.68,3.68,0,0,0-1.94-1.34l-.36-.85a11.73,11.73,0,0,1-3.19,0c-.15,0-.3,0-.46-.06a6.8,6.8,0,0,1-2.67-.79h-.25l-.26-.07a3.7,3.7,0,0,1-2.38-1.85l-.09-.18a6.43,6.43,0,0,1-.21-4.39l.07-.24.24-.4a9.87,9.87,0,0,1,2.55-3.14c-6.9-8.61-16.36-13.93-26.8-13.93a30.59,30.59,0,0,0-9.6,1.55,41,41,0,0,0-4,1.42c-5.76,2.41-10.56,5.87-13.3,11a48.19,48.19,0,0,0-3.59,5.19c-.81-1.33-1.66-2.62-2.56-3.84-2.52-5-6.66-8.75-12.25-11.37-.79-.38-1.59-.7-2.39-1a31.19,31.19,0,0,0-13.26-3c-11.55,0-21.89,6.51-28.9,16.78a49.69,49.69,0,0,0-9.22,20.12c-.08.86,0,1.73-.12,2.59-1.17,4.71-.63,9.58-.34,14.24a57.12,57.12,0,0,0,6.15,22.34c1.26,2.45.85,3.4-1.6,4.47-5.41,2.36-9.24,6.16-9.73,12.46a5.89,5.89,0,0,0,.56,3.14c3,5.61,7.78,9.4,13.3,12.34,12,6.36,25,8.8,38.26,10.58,5.45.73,11-.16,16.35,1.06a76.43,76.43,0,0,0,9.33,0,9.89,9.89,0,0,1,3.62-.54,90.47,90.47,0,0,0,18-1.28c15-2.26,29.77-5.12,42.35-14.43,3.85-2.95,5.9-7.09,7.61-11.46A3.82,3.82,0,0,0,544.7,831.32Z"/><path class="cls-3" d="M442.66,694.85c-.68,1.17-1.49.73-2.2.1s-1.61-1.55-2.4-2.34c-4-3.92-5.87-3.41-7.43,2a2,2,0,0,1-1.5,1.59c.26-1.07.43-2.18.79-3.22.62-1.76,1-3.82,3.36-4.15s4,1,5.47,2.61C439.92,692.76,440.81,694.34,442.66,694.85Z"/><path class="cls-4" d="M421.28,956.79c1-1.62,3.46,1.43,4-1.34a1.84,1.84,0,0,1,2.68,0c-.71.75-1.57,1.43-1.33,2.66-3.13.49-6.26,1-9.39,0C418.06,956,420.15,957.87,421.28,956.79Z"/><path class="cls-5" d="M358.17,807.76c1.22,4.32,5.14,6.74,7.3,10.4a19.1,19.1,0,0,1-8.27-10.29Z"/><path class="cls-6" d="M453.53,682.18c-3.06-1.27-5-.23-6.16,2.8-.45,1.17-.77,2.57-2.12,3.2a16.38,16.38,0,0,1,2.39-5.42C449.13,680.24,451,680.12,453.53,682.18Z"/><path class="cls-7" d="M396.48,852.53c2.8.49,5.66.86,7.28,3.69A19,19,0,0,1,396.48,852.53Z"/><path class="cls-8" d="M499.3,703.64c-1.87.34-3.61-.37-5.42-.73,0-.85,1.07-.55,1.24-1.19C496.6,702.18,498.54,701.63,499.3,703.64Z"/><path class="cls-9" d="M615.29,859.45c1-1.18.19-3.22,2-4,.5,2-.61,3.63-1.39,5.32C614.87,860.68,614.81,860.18,615.29,859.45Z"/><path class="cls-10" d="M390.87,848.13c2.62-.32,3.38,1.58,4.15,3.47A12.64,12.64,0,0,1,390.87,848.13Z"/><path class="cls-11" d="M607.31,871.65c1-1.49,1.37-3.61,3.81-3.51A7.79,7.79,0,0,1,607.31,871.65Z"/><path class="cls-12" d="M432.06,867l.63,1.19c-1.18.38-1.76,2.44-3.5,1.26Z"/><path class="cls-13" d="M421.28,956.79c-1,1.34-3,0-4,1.31a2.72,2.72,0,0,1-2.26-.56A16,16,0,0,1,421.28,956.79Z"/><path class="cls-14" d="M401.88,934.41a4.1,4.1,0,0,1,3.16,3.72A6.78,6.78,0,0,1,401.88,934.41Z"/><path class="cls-15" d="M492.25,998.51c1.43.66,2.73,1.45,3,3.2A7.18,7.18,0,0,1,492.25,998.51Z"/><path class="cls-10" d="M388.22,844.82c2-.11,2.22,1.18,2.1,2.72A6.83,6.83,0,0,1,388.22,844.82Z"/><path class="cls-16" d="M582.43,868.24c-.63-1.81-.09-2.6,1.88-2.12A4.06,4.06,0,0,1,582.43,868.24Z"/><path class="cls-17" d="M509.34,706.8c-1.69,1.49-2.1,0-2.67-1.14A4.42,4.42,0,0,1,509.34,706.8Z"/><path class="cls-11" d="M604.54,872.8c.44-1.58,1.38-1.93,2.79-1.16C606.58,872.46,605.77,873.14,604.54,872.8Z"/><path class="cls-18" d="M427.39,958.83c1.13,1.49.62,3.17.55,4.8A11.18,11.18,0,0,1,427.39,958.83Z"/><path class="cls-19" d="M597.77,793c-1.72-.73-1.7-2-1.19-3.52A6.28,6.28,0,0,1,597.77,793Z"/><path class="cls-10" d="M387,842.69c2.37-.44,1.9.79,1.24,2.12A3.08,3.08,0,0,1,387,842.69Z"/><path class="cls-20" d="M606.18,820.42l-2.31-.57-.65,0c-.48-.31-1.08-.57-.67-1.33C604.18,818.35,605.13,819.47,606.18,820.42Z"/><path class="cls-21" d="M615.29,859.45c.19.44.38.87.58,1.31l-.76,1.38C613,861.1,614.69,860.31,615.29,859.45Z"/><path class="cls-22" d="M405,938.12c.6-.31,1.31-.72,1.56.26.35,1.36-.87,1.22-1.63,1.49A1.61,1.61,0,0,0,405,938.12Z"/><path class="cls-23" d="M526.62,1019.92h4.85A4.3,4.3,0,0,1,526.62,1019.92Z"/><path class="cls-24" d="M602.55,818.5c.23.44.45.89.67,1.33-1.41.78-1.53-.55-2-1.24a2.5,2.5,0,0,1,.66-.09Z"/><path class="cls-25" d="M601.9,874.24c0-1.52,1.25-1.07,2.07-1.3C603.71,874.05,602.88,874.27,601.9,874.24Z"/><path class="cls-26" d="M401.22,923.88c-1.77-6.37.31-12.23,2.92-17.78,5.74-12.24,14.71-22.06,24.51-31.14,2.41-2.23,4.63-4.77,7.91-6.36-.28,2.26-.12,4.37-1.17,6.29-3.26,8.54-7.05,16.86-9.64,25.67-1.52,5.19-3.84,6.28-10.05,6,1.24,1.92,5.07,2.79,2.72,5.81-1.6,2.06-4.5,1.72-7.26,2.92,2.26.34,4.09.06,5.86.36,1,.17,2.08.47,2.26,1.66s-.91,1.42-1.66,1.83c-1.38.75-2.91,1.16-4.49,2,.77.94,2.83.22,2.73,2-3.1,2.17-4.76,5.32-6,8.76-3.61.28-5.05-2.65-7-4.81A14.25,14.25,0,0,1,401.22,923.88Z"/><path class="cls-27" d="M520,863.45c-8.94,5.71-18.78,9.17-29.07,11.39a99.1,99.1,0,0,1-23.88,2.1,114.77,114.77,0,0,1-23.69-3.51c-1.07-.25-2.17-.38-3.26-.57.16-5.48.16-5.46,6.05-4.75a182.78,182.78,0,0,0,69-4.45C516.67,863.23,518.3,862.76,520,863.45Z"/><path class="cls-28" d="M419.28,954.86c-6-.65-11-2.87-13.36-9-.53-.65-.68-1.27.12-1.83l1.91-2c1-1.12,2.24-.59,3.4-.68,1.47.16,2.55,1.12,3.73,1.79.4.1-.13.41.18.1s-.24-.27-.27-.49c-1.5-1.44-1.63-3.44-2.24-5.24-.94-4.73,1.2-8.25,4.44-11.35a3.06,3.06,0,0,1,.53-.38c1.15-.5,2.08-2.09,3.46-1.27s.84,2.43.72,3.67c-.21,2.22,1.13,4.28.53,6.5.46,4.9,3.28,8.93,5,13.36a11.44,11.44,0,0,1,.54,4.15c-.16,2-1,3.33-3.32,2.62l-.7.06A10.37,10.37,0,0,1,419.28,954.86Z"/><path class="cls-29" d="M415.86,923.18c-1-1.07-2.34-.45-3.5-.66-.58-.1-1.2-.25-1.31-.85s.45-1,1-1.19l7.07-3.08c-3.34-2-7.13.26-10.32-1.91,2-2.11,4.71-1.73,6.9-2.61,1.07-.43,2.65-.35,2.79-2,.11-1.42-1.23-1.7-2.16-2.26a4.3,4.3,0,0,1-.86-.5c-.76-.73-2.27-1.28-1.71-2.51.46-1,1.77-.44,2.74-.24,4.8,1,7.36-.85,8.83-6.2,2.33-8.53,5.29-16.8,10.09-24.3-.74,6.85-3.72,13-6.09,19.35-2.89,7.7-6.24,15.27-7.4,23.48C421.37,921.51,417.9,921.41,415.86,923.18Z"/><path class="cls-26" d="M540.67,820.56a1.33,1.33,0,0,1-1.26-.62c-1.63-1.05-2.29-2.42-1.38-4.29,1.73-6.2,3.74-12.34,4.44-18.79.2-1.87.24-3.77.38-5.65,0-.8.17-1.86,1.3-1.1,1.83,1.23,3.55,2,4.24,4.94,2,8.37-2.36,14.36-6.26,20.7a7.82,7.82,0,0,0,3.09,1c2.13.49,2.8,1.74,2.64,3.84-.11,1.48-.2,3.11-1.51,3.79-1.52.79-2.18-1-3.11-1.81A9,9,0,0,0,540.67,820.56Z"/><path class="cls-30" d="M561.58,787.65a3.55,3.55,0,0,1,0-.65c.18-1.08,1.16-1.72,1.94-2.79-2.47,0-3.55,1.49-4.59,2.9-.67.92-1.2,1.93-2.47.76.68-6.54,5.49-10.07,11.56-8.3a16.55,16.55,0,0,1,8.46,5.58c-.91,1.89-2.67.8-4,1.14-2.79.7-5.69.85-8.43,1.77A2.49,2.49,0,0,1,561.58,787.65Z"/><path class="cls-31" d="M401.22,923.88c2.73,2.84,4.77,6.43,8.63,8.06-.27,1.45.8,3.68-.68,4.22-1.76.65-2.6-1.69-3.6-2.86C403.27,930.6,401.42,927.6,401.22,923.88Z"/><path class="cls-32" d="M552.82,800.45v-2.56c2.37,8.85,1.17,17.62-.23,26.39-.18,1.12-.47,1.34-1,1.13-.14-.06-.08-.62-.11-.95A115.57,115.57,0,0,0,552.82,800.45Z"/><path class="cls-33" d="M548.21,774.33a9.58,9.58,0,0,0-4.06,5.91c-.26.69-.51,1.38-.79,2.06-.5,1.24-1,.73-1.42,0a2.76,2.76,0,0,1,.06-.57,8.69,8.69,0,0,1,3.55-9.05c1.37-1,2.86-1.76,4.59-.67C550.61,773.66,549.69,774.23,548.21,774.33Z"/><path class="cls-34" d="M540.67,820.56c2.05-.43,2.6,1.44,3.59,2.49,1.65,1.75,2.49.93,3-.8.62-2.34.59-4.52-2.52-5.1a3.68,3.68,0,0,1-2.56-1.4c6.43.72,7,1.59,5.53,7.89-.25,1.06-.24,2.22-1.17,3.14Z"/><path class="cls-35" d="M561.58,787.65c3.66-.24,7.07-1.9,10.78-1.93a2.22,2.22,0,0,1,.9.61.54.54,0,0,1-.26.61c-3.24,1.16-6.79.91-9.93,3C561.21,791.19,561.41,788.92,561.58,787.65Z"/><path class="cls-36" d="M422.43,934.72c-1.23-3.1-1.22-6.41-1.33-9.67-1.75-.15-2.6,1.09-3.79,1.56-.68.24-.84-.08-.72-.69a19.36,19.36,0,0,1,2.51-1.56c2.12-.94,3.79-.31,3.43,2.12C422.11,929.26,424.15,932,422.43,934.72Z"/><path class="cls-37" d="M438,958.81c0,.21.06.41.08.62.12.6.43,1.18.18,1.81a1.45,1.45,0,0,1-1.16.74c-.65-.11-1.33-.19-1.1-1.14-1.16-2.36-3.91-3.76-4-6.75Z"/><path class="cls-38" d="M459.55,866.16c0-.19,0-.37,0-.56l20.13,0c-3,1.27-6.1.45-9.16.58C466.87,866.31,463.2,866.17,459.55,866.16Z"/><path class="cls-39" d="M413.34,937.79l-.77.88,0-.71a12,12,0,0,1,0-6c1.11-2.18,2-4.48,4-6l.72.69A13,13,0,0,0,413.34,937.79Z"/><path class="cls-40" d="M424.65,954.85c1.77-.1,2.89-.69,2.64-2.82a23.84,23.84,0,0,1,.14-3.95l.57,1.34a7.35,7.35,0,0,1,0,4.68c0,.45,0,.9,0,1.34h-2.68Z"/><path class="cls-34" d="M538,815.65a6.4,6.4,0,0,0,1.38,4.28C536.66,819.25,536.08,817.86,538,815.65Z"/><path class="cls-41" d="M580.9,784.17c.88.86-.53.89-.52,1.43l-2.68.67a1.3,1.3,0,0,1-.18-1.5C578.5,783.76,579.57,783.25,580.9,784.17Z"/><path class="cls-42" d="M577.7,785v1.28H577a5.47,5.47,0,0,1-4,0l-.65-.56c1.29-.52,2.81.18,4-.77A.91.91,0,0,1,577.7,785Z"/><path class="cls-43" d="M540.77,791.64a6.17,6.17,0,0,1,0-6Z"/><path class="cls-44" d="M412.55,932q0,3,0,6A6.13,6.13,0,0,1,412.55,932Z"/><path class="cls-45" d="M452.84,866.16c1.56.23,3.27-.57,4.69.67C456,866.49,454.23,867.61,452.84,866.16Z"/><path class="cls-18" d="M429,961c.43,1.75.54,2.79,0,3.93C428.44,963.76,428.63,962.74,429,961Z"/><path class="cls-38" d="M467.09,867.22a5.66,5.66,0,0,1,3.91-.08C469.88,867.72,468.86,867.52,467.09,867.22Z"/><path class="cls-46" d="M428,954.1v-4.68A3.92,3.92,0,0,1,428,954.1Z"/><path class="cls-47" d="M573,786.28h4c-1.19,1.15-2.68.48-4,.66C573,786.72,573,786.5,573,786.28Z"/><path class="cls-27" d="M527.36,881.61c6.4-3.15,13.54-3.44,20.29-5.24,11.73-3.14,22.44-8.28,31.2-16.67A64.18,64.18,0,0,0,594.93,835a15,15,0,0,1,.89-1.74,61.93,61.93,0,0,1-12.22,27.9c-10.65,14.16-25.32,22.2-42,27.11-4.09,1.21-8.23,2.31-12.1,4.74,3.47.06,3.9,2.53,4.69,4.85a122.4,122.4,0,0,1,6.41,29.3,50.61,50.61,0,0,1-1.93,17.19,2.72,2.72,0,0,1-.53,1.21c-7.06,7.42-7.24,17.15-8.82,26.39-1.16,6.79-.53,13.78-2.53,20.5-1.78,6-5.64,9.42-11.64,10.66-.87.18-1.73.43-2.59.65-8.63.31-15.49-2.57-19.44-10.74,3.94,2.73,7.85,5.67,12.84,6,9,.61,15.92-3.73,19.3-12.88a36.37,36.37,0,0,0,1-23,10.2,10.2,0,0,0-3.83-5.71c-1.89-1.37-1.65-2.61.55-3.12,8.78-2.05,12.72-8.51,14-16.5,1.77-10.61.89-21-5-30.54-2.48-4-4.83-8-7.19-12.06a14.46,14.46,0,0,1-2.14-9,5.55,5.55,0,0,1,4.23-4.72Z"/><path class="cls-26" d="M612.6,834l1.31,1.42c1,5.71,2.16,11.4.72,17.23-.64,2.62-1.23,5.22-2.76,7.49-4.65,4.77-12,6.54-17.11,3.84-2.23-1.17-5-2.3-4.31-5.83a87.22,87.22,0,0,0,10.78-33.57c3.29-.51,4.87,2.19,7,3.77a12.61,12.61,0,0,1,2.6,3C611.38,832.24,612,833.09,612.6,834Z"/><path class="cls-48" d="M590.45,858.1c2.65,5.75,9.77,7.85,15.79,4.69,1.85-1,3.76-1.8,5.63-2.7-2.59,6.74-8.6,11.38-14.56,11.47-3.66.05-5.81-2-7.27-4.91S587.63,860.82,590.45,858.1Z"/><path class="cls-49" d="M529.26,1001.81a.91.91,0,0,1,.11.58c.45,1.93-.91,3-2.18,3.73-7.8,4.68-20.09,5.54-28.72.44a2.15,2.15,0,0,1-.64-.76c1.05-1.45,2.14-.42,3.26-.09,1.59.48,3.21.86,4.82,1.29a21.88,21.88,0,0,1,6.89-.51c1.1,0,2.19.67,3.3,0l1.15-.13c2.67-1.57,5.4-3,8.16-4.39C526.63,1000.55,528,1001.42,529.26,1001.81Z"/><path class="cls-50" d="M610.64,831.89a28,28,0,0,0-9.41-7.36c.1-1-.8-2.45,1.18-2.61,3.41,2.66,7,5.16,8.9,9.26C611.62,831.92,611.25,832,610.64,831.89Z"/><path class="cls-51" d="M531.39,974.27q0,4.68,0,9.36A14,14,0,0,1,531.39,974.27Z"/><path class="cls-52" d="M596.45,825.87l.6.63a8.91,8.91,0,0,1-.68,4.67A5.51,5.51,0,0,1,596.45,825.87Z"/><path class="cls-53" d="M516.1,1006.52a4,4,0,0,1-2.86.54.92.92,0,0,1-.37-.63,1,1,0,0,1,.38-.63h0Z"/><path class="cls-54" d="M381,789.62c2.3-.48,3.41.3,3.55,2.81a38.89,38.89,0,0,0,1.22,5.84c.11.19.28.44.2.6-1.88,3.73-1.9,7.7-1.57,11.71-1.22.29-2.44.74-3.68.11-8.39-4.48-9.83-13.25-3.27-19.9a5.93,5.93,0,0,1,2.64-1.48A1.21,1.21,0,0,1,381,789.62Z"/><path class="cls-55" d="M376.49,819.08c-8.9-2.35-15.17-7.49-17.59-16.68-.58-.56-.35-1.24-.29-1.89,2.25-.5,2.61,1.56,3.55,2.72,4.59,5.62,10.27,9.08,17.69,9.25,1.74.08,3.4.38,4.55,1.88,1.39.1,2.79.29,4.17.26,3-.06.85,1.14.52,1.91a3.91,3.91,0,0,1-2.95,3.22l-4.92,0C379.73,819,377.93,820.25,376.49,819.08Z"/><path class="cls-26" d="M388.35,825.84c.45,2.23,1.24,4.26,3.37,5.45.51.29.25,1,.7,1.31-.57,5.54,1.51,10.37,4.41,15.27C389.47,843.77,386.08,834.54,388.35,825.84Z"/><path class="cls-56" d="M384.35,810.5c-2.83-4.46-1.11-8.4,1.43-12.23,1.19,3.33,2,6.79,3.72,9.93,1.26,2.36.51,3.17-2,2.88a27.08,27.08,0,0,0-3,0c-.3-.06-.41-.17-.36-.31S384.27,810.5,384.35,810.5Z"/><path class="cls-57" d="M392.42,832.6l-.7-1.31c1.15-1.77.35-4.8,3.43-5.34C394.15,828.13,392.71,830.13,392.42,832.6Z"/><path class="cls-58" d="M395.1,833.27l.78,1.55c.22.81.43,1.63.64,2.44s.18,1.78.28,2.68C394.47,838.16,395.28,835.59,395.1,833.27Z"/><path class="cls-59" d="M400.46,791.65c0,2.24,0,4.47,0,6.71A7.57,7.57,0,0,1,400.46,791.65Z"/><path class="cls-60" d="M376.49,819.08a11.73,11.73,0,0,1,4.73.69,7.11,7.11,0,0,0-3.57.74l-1.34-.67c-.22-.12-.42-.27-.64-.4Z"/><path class="cls-59" d="M400.47,798.36c1,.95.54,2.21.67,3.34C400.08,800.75,400.6,799.49,400.47,798.36Z"/><path class="cls-61" d="M426,717.84A112.54,112.54,0,0,0,405.25,734,25,25,0,0,0,398.5,742h0c-.95.38-1.62.32-1.53-1,3.75-7.07,9.2-12.71,15.05-18s12.45-8.93,19.12-12.72c1.23,1.32.57,3.88-1.4,4.94C428.41,716,426.83,716.36,426,717.84Z"/><path class="cls-62" d="M426,717.84c-1-2.27,1.14-2.42,2.2-2.72,2.61-.75,2.75-2.73,3-4.8l.3-6c.61-1.32-.17-2.81.52-4.11a19.26,19.26,0,0,1,2.16-7.6c1.91,1.77,3.55,3.27,5.16,4.8,2,1.91,4.05,2.25,6.2.24.21-.31.42-.32.65,0-.53,1.69-1,3.39-1.6,5.08-.79,2.44-2.23,2.55-4,1-1.33-1.18-2.53-2.51-3.85-3.7-.7-.64-1.31-1.85-2.44-1.38s-1.37,1.75-1.45,2.84c-.14,2.22-.15,4.45-.15,6.68C432.66,715.25,432.67,715.25,426,717.84Z"/><path class="cls-63" d="M458.11,696.47a16.93,16.93,0,0,1-4.29-3.62c-3.3-3.67-3.4-3.66-5.72.75-.62.12-1,0-.71-.74.84-2.16,1.69-4.31,2.5-6.48.57-1.55,1.27-1.51,2.3-.34a62.3,62.3,0,0,0,8.73,7.57C459.94,694.53,459.07,695.54,458.11,696.47Z"/><path class="cls-64" d="M458.11,696.47c.38-1.5.92-2.85,2.81-2.86l.65,0c1.8,2.06,4.56,2.53,6.71,4-.37,2.39-2.14,2.63-3.95,2.29a7.51,7.51,0,0,1-2.84-.91A8.15,8.15,0,0,1,458.11,696.47Z"/><path class="cls-65" d="M397,741.06a1.8,1.8,0,0,0,1.53,1l-6.78,12c-.64.11-1,0-.75-.78A45.28,45.28,0,0,1,397,741.06Z"/><path class="cls-66" d="M447.39,692.86c.24.24.48.49.71.74-.67,1.34-.68,3-2,4.06l-.65,0Z"/><path class="cls-67" d="M391,753.26l.75.78-1.38,4c-.66.12-1.05,0-.77-.79A10.26,10.26,0,0,1,391,753.26Z"/><path class="cls-68" d="M432,700.24c-.07,1.38.46,2.84-.52,4.11C431.4,703,431.2,701.53,432,700.24Z"/><path class="cls-69" d="M389.59,757.23l.77.79-1,2.07-.4-.8C389.14,758.6,389.37,757.91,389.59,757.23Z"/><path class="cls-27" d="M444.75,995.08c4.85.54,9.74,1.46,14.54,0,5.49-1.69,10.5-8.52,8.37-14a8.65,8.65,0,0,0-4.93-5c-6.8-3-14-5.27-20-9.89-.34-.56-.06-1.06.12-1.58a2.44,2.44,0,0,1,.57-1.09l0-.22a95.41,95.41,0,0,0,28.82,10.24c.94.16,1.74.37,1.62,1.63-.51,5.73.14,11.54-1.79,17.19a10.74,10.74,0,0,1-8.6,7.48C456.53,1001.27,450,1000.74,444.75,995.08Z"/><path class="cls-70" d="M441.31,1002.34c2.08-1.82,4-1.52,6.53-.42,7.67,3.29,15.41,3.59,22.7-1.36l1.66.77.94,1.6c-.86,3.35-4.18,3.47-6.48,4.93-8.13,2.85-15.93,3-23-2.77C442.71,1004.32,441.66,1003.62,441.31,1002.34Z"/><path class="cls-71" d="M462.83,975c-1.22-.58-2.43-1.14-3.7-1.6a91,91,0,0,1-15.64-7.66,4.92,4.92,0,0,0-3.35-1.11h0c.18-1.92-1.31-2.48-2.73-3.09l-1-.49a.5.5,0,0,1,0-.13c-.25-3-3.34-4.26-4.38-6.79-1.07-1.44-1.34-.73-1.28.51.18,3.86.41,7.73.62,11.59l.6.73a1,1,0,0,1,.84-.9,6.42,6.42,0,0,1-.83.9c.19,1.55.39,3.11.59,4.67.08.2.17.39.26.59h0c2,8.64,4.69,17,11.9,22.9,4.86,2.68,10,2.19,15,.87a12.63,12.63,0,0,0,7.76-6.54C470.83,983.37,469.05,977.93,462.83,975Z"/><path class="cls-72" d="M462.23,1002.44a12.09,12.09,0,0,1-8.72,0Z"/><path class="cls-73" d="M513.25,1005.8v.66a11.53,11.53,0,0,1-6,0c0-.21,0-.43,0-.65Z"/><path class="cls-72" d="M466.26,1001.77c-.95,1.05-2.22.53-3.35.67C463.86,1001.38,465.12,1001.9,466.26,1001.77Z"/><path class="cls-74" d="M461.49,699c2.19-.82,5,1.38,6.79-1.38l.68-.07a117.75,117.75,0,0,0,22,6.83c19.18,4.2,35.11,13.79,47.5,29.12a13.79,13.79,0,0,1,1,1.71c-.27,1.69,3.16,2.88.66,4.88-1.68.23-1.44-1.36-2-2.16-12.11-14.35-27.56-23.21-45.69-27.55-9.58-2.3-19-5-27.92-9.29A6.3,6.3,0,0,1,461.49,699Z"/><path class="cls-75" d="M540.07,740c1.6-1.83-1.87-3-.62-4.78l1.28,1.37,3.28,4.86a8.82,8.82,0,0,0,1.38,3.35c-1.27,2-2-.38-3-.39a3.7,3.7,0,0,1-1-.86C540.82,742.46,539.7,741.53,540.07,740Z"/><path class="cls-76" d="M441.31,1002.34a5.35,5.35,0,0,1,1.49.68c6.6,6.27,14.28,6.8,22.56,4.35a9.8,9.8,0,0,1,1.64-.19c.69-.19.85.1.64.71a52.29,52.29,0,0,1-16.19,12,1.39,1.39,0,0,1-1.92,0c-1.59-1.17-.59-2.37,0-3.5s.95-2.7.2-3.62c-1-1.22-2.44-.35-3.65.24-2,1-4,2-6,2.88-.57.26-1.29.71-1.79,0-.37-.54.08-1.09.41-1.5.89-1.13,1.82-2.23,2.77-3.31.74-.83,1.76-1.6,1-2.85s-2-1.25-3.24-.9c-.85.24-1.73.39-2.59.58-1.15.62-2.49,0-3.64.54l-1-.59,1.59-1.24,4.5-2.76Z"/><path class="cls-77" d="M467.64,1007.89l-.64-.71,6.14-4.25c1.06,1.39,2.17,2.75,3.16,4.19.55.8,1.21,1.8.54,2.73s-2,.85-3,.5a19.86,19.86,0,0,1-3.51-1.76C469.45,1008.09,468.74,1007.31,467.64,1007.89Z"/><path class="cls-78" d="M436.58,1009.41c-1.09.3-2.1,2.56-3.49.09A5.49,5.49,0,0,1,436.58,1009.41Z"/><path class="cls-79" d="M449.53,1019.87h1.92a1.68,1.68,0,0,1-2.31,1C448.08,1020.39,448.85,1020,449.53,1019.87Z"/><path class="cls-80" d="M373.75,808.42c1.24,2.47,3.62,3.55,5.86,4.79-2,1-3.85-.11-5.64-.64-6.69-2-11.56-6.28-15.05-12.23-2.9-3.3-1-6.59,0-9.88,1.31-2.8,2.4-5.7,4.48-8.1a16.24,16.24,0,0,1,8-4.88c2.32-.21,4.66-.36,7-.66l-.05,0c1,1,2.38-.06,3.39.72l0,0c1.84,2.58.88,5.38.65,8.13l-1.31.65a1.23,1.23,0,0,1-1.33.2c-4.94,1.5-7.53,5-8.61,9.89a8.63,8.63,0,0,1,0,6A11.47,11.47,0,0,0,373.75,808.42Z"/><path class="cls-81" d="M358.94,790.46c-.24,3.29-1.38,6.58,0,9.88,0,.68,0,1.37,0,2.06l-1.39-2,0-.7a12.23,12.23,0,0,1,0-6C357.58,792.44,357.51,791.11,358.94,790.46Z"/><path class="cls-82" d="M378.39,776.82c-2.13,2.29-4.65.46-7,.66A10.94,10.94,0,0,1,378.39,776.82Z"/><path class="cls-83" d="M357.49,793.69v6A6.23,6.23,0,0,1,357.49,793.69Z"/><path class="cls-82" d="M381.73,777.51c-1.16-.09-2.46.47-3.39-.72l3.16.18Z"/><path class="cls-2" d="M577.7,785l-1.32,0a4.78,4.78,0,0,1-3.21-1.52,12.91,12.91,0,0,0-6.17-3.14c-5.36-1-7.74.91-10.11,8a2.32,2.32,0,0,1-2,1.32,30.83,30.83,0,0,1-3.33,0c-2.17.22-3.4-1.07-4.43-2.71-1.1-1.44-.71-2.94-.2-4.45l2.82-6.1a3.73,3.73,0,0,1,1.08-2.34c.9-1,0-1.27-.55-1.73-3.86.09-6.06,1.74-7.16,5.42-.39,1.33-.73,2.68-1.1,4-3.92-7-2.47-11,5.07-14.07a1.73,1.73,0,0,1,.65-.74c1.08-.57,2.39-.51,3.49-1.15-2.27-2-5.77-2.61-11.53-2.13-4.11.34-8.25.09-12.37.22a1.83,1.83,0,0,1-1.19-.93,4.55,4.55,0,0,1-.11-3.13c1-1.62,1.88-3.31,4.12-3.39l5.53-2.84c1.85-1.38,4-1.13,6.11-1.15,2.58.14,5.17-.3,7.73.24l2.53.16c6-1.11,30.1,12.64,32.24,20.33,1.23.34,1.59,1.43,2.08,2.41a23.11,23.11,0,0,1,.39,2.33c-.12.74.38,1.6-.42,2.2-1.25,2.11-3.44,3-5.42,4.12Z"/><path class="cls-84" d="M586.32,780.05l.07-2.44c-.34-.46-.09-.7.33-.88l.38.15c0,1.33,0,2.67,0,4Z"/><path class="cls-85" d="M497.83,1005.8c4.1.85,7.87,3.12,12.18,3,7.09-.18,14.32,0,19.36-6.42,2.85.58,4.91,2.66,7.39,3.93.28.67,1.47,1,.94,1.91s-1.37.58-2.15.33c-1.37-.44-2.73-.92-4.12-1.33-.87-.26-1.79-.44-2.48.39a2.21,2.21,0,0,0-.09,2.52c.14.3.35.57.47.88.65,1.78,2.62,3.84.66,5.39-1.79,1.42-3.7-.53-5.4-1.51-1.32-.76-2.59-1.59-3.89-2.39-1.74-.6-1.74.83-2,1.81a37.57,37.57,0,0,1-1.63,4.83l-1.27,1.33a1.77,1.77,0,0,1-2.39,0,27.21,27.21,0,0,1-5-5.28c-.78-1.41-1.24-3-2.47-4.14-1.15-.13-2.24.72-3.41.19l-2.68.68c-1.2,1.35-2.49,1.8-4,.39-1.94-1.09-1.8-2.54-.58-4A30.23,30.23,0,0,1,497.83,1005.8Z"/><path class="cls-86" d="M518.64,1016.52c.1-1.44-.48-3.1,1.3-4C519.5,1013.86,519.57,1015.35,518.64,1016.52Z"/><path class="cls-87" d="M513.38,1020.49h2.39c.37.18.63.39.17.76C515.11,1020.88,513.87,1022,513.38,1020.49Z"/><path class="cls-88" d="M545.52,748.59,542.78,744c1.32-1.12,1.25,2.1,2.61.83,1,.53,1.14,1.59,1.56,2.46C547.9,749.23,546.43,748.63,545.52,748.59Z"/><path class="cls-89" d="M549.5,752.62l-8.07-.07q-.34-.16-.24-.33c.07-.12.14-.19.22-.19C544.1,752.26,546.88,751.35,549.5,752.62Z"/><path class="cls-90" d="M541.41,752c0,.18,0,.35,0,.52l-5.77,1C537,751,539.48,752.47,541.41,752Z"/><path class="cls-13" d="M419.28,954.86l4.67,0A4.55,4.55,0,0,1,419.28,954.86Z"/><path class="cls-91" d="M406,944.08l-.12,1.83c-.07.19-.08.44-.22.57-.34.31-.48,0-.5-.27C405.16,945.38,405.07,944.52,406,944.08Z"/><path class="cls-92" d="M502.5,1011.26c1.13-.13,2.2-1.5,3.41-.19-.92,1.2-2.24.63-3.4.77C502.51,1011.65,502.5,1011.45,502.5,1011.26Z"/><path class="cls-93" d="M473.55,860.74h6.59v.52H456.49l0-.51h17.09Z"/><path class="cls-94" d="M466.29,826.47l-.18-1.19c-1.14-.17-2.34-.63-3.22.59-1.42,1.34-.4,2.08.69,2.8C467.37,829.09,467.37,829.09,466.29,826.47Z"/><path class="cls-95" d="M589.79,814.41c0,3.93-3.16,6-6.73,4.43a21.06,21.06,0,0,0-2.78-1c-.75-.22-1.45-.77-1.1-1.35a5.56,5.56,0,0,0,.38-5.24c2.44-.88,5-2.58,7.29-2.33C588.27,809.05,589.78,812,589.79,814.41Z"/><path class="cls-96" d="M477.67,887a29.57,29.57,0,0,0-18.61.8c1-1.46,1-1.42,3.7-2.13a32,32,0,0,1,11.87-.4C475.75,885.36,477.1,885.61,477.67,887Z"/><path class="cls-97" d="M520.64,884.28a17.35,17.35,0,0,0,2-1.45c1.08-1,.54-1.63-.69-1.9v-2.69c1.94.88,2.71,3.64,5.37,3.36a23,23,0,0,0-4.7,4.7C521.17,886.43,522.88,883.38,520.64,884.28Z"/><path class="cls-98" d="M442.76,900.38A94.06,94.06,0,0,0,435.48,912c-.4-.26-.43-.55-.1-.88,1.07-3.88,3.47-7,5.82-10.15C441.53,900.56,441.92,899.76,442.76,900.38Z"/><path class="cls-99" d="M442.17,951.27l-.74.83c-1.84-2.91-4.88-5.09-5.34-8.83Q439.12,947.28,442.17,951.27Z"/><path class="cls-100" d="M507.76,931.72v-6.94c.08-.44.15-.87.22-1.31h.31v9.67C507.63,932.85,508,932.18,507.76,931.72Z"/><path class="cls-101" d="M504.4,943.85c.76-2.17,1.51-4.33,2.27-6.49C507.42,940.05,506.86,942.28,504.4,943.85Z"/><path class="cls-102" d="M495.81,897.72l-.78.71c-1.38-1.29-3-2.35-3.92-4.08C493.32,894.58,494,896.93,495.81,897.72Z"/><path class="cls-103" d="M435.38,911.14c0,.29.06.58.1.88l-2.12,5.16C432.78,914.75,434.16,913,435.38,911.14Z"/><path class="cls-104" d="M447.79,895.1,444,899C443.81,896.3,445.68,895.59,447.79,895.1Z"/><path class="cls-97" d="M522,878.25h-2.69c1.17-.63.75-2.84,2.69-2.68A2.27,2.27,0,0,0,522,878.25Z"/><path class="cls-97" d="M519.3,883.61l.67.67c-.07.94.24,2-.68,2.69C520.49,885.85,516.66,884.73,519.3,883.61Z"/><path class="cls-105" d="M480.4,963l3.77-1C483.25,963.65,482,963.85,480.4,963Z"/><path class="cls-106" d="M595.77,812.47c0-.45.05-.9.07-1.35,1.2,1.47.48,3.18.6,4.79C595.58,814.89,596,813.62,595.77,812.47Z"/><path class="cls-107" d="M432.64,934.66c.18.65.37,1.31.56,2C431.9,936.29,431.74,935.62,432.64,934.66Z"/><path class="cls-97" d="M517.28,881.6l-2.69,1.34C514.87,881.23,516.21,881.7,517.28,881.6Z"/><path class="cls-108" d="M415.14,944.1a1.38,1.38,0,0,0,.72-1.28l2.93,2.27C416.73,945.17,415.87,944.86,415.14,944.1Z"/><path class="cls-109" d="M467.18,964l4.45.14c-1.88,1.39-3.92.34-5.94.18Z"/><path class="cls-110" d="M537.79,775.51a1.74,1.74,0,0,1-.06,2.07A1.71,1.71,0,0,1,537.79,775.51Z"/><path class="cls-111" d="M551.54,789.57a2.38,2.38,0,0,1,3.33,0A2.59,2.59,0,0,1,551.54,789.57Z"/><path class="cls-112" d="M443.45,963.52l.65,1.32c-3.57,1-4.45-2-6-4-.66-.48-.59-.94.05-1.39A14.48,14.48,0,0,1,443.45,963.52Z"/><path class="cls-113" d="M438.06,960.82c2.24,1,3,4.19,6,4l-1.34,1.35-2.66-1.36-2.71-3.33Z"/><path class="cls-82" d="M382.34,785.62c-.65-2.68.81-5.52-.65-8.13,2,.22,1.13,1.77,1.3,2.8.22,1.39-.07,2.85.56,4.19C383.44,785.16,383.3,785.82,382.34,785.62Z"/><path class="cls-65" d="M398.5,742c.75-3.94,3.58-6.15,6.75-8.06Z"/><path class="cls-114" d="M401.81,755.39c-.6.9-.05,1.79,0,2.69h-2.68C400.34,757.5,400.2,755.57,401.81,755.39Z"/><path class="cls-115" d="M547.62,767.55c.72-2.51-.57-3.34-2.82-3.36a10.13,10.13,0,0,1-7.37,0c-2.23,0-4.39.85-6.65.5-1.28-.2-2.68-.16-3.32-1.66,7.31-.22,14.63-1,21.92.27,1.71.31,4.29.53,4.2,2.48-.08,1.62-2.78,1.15-4.3,1.65A6.48,6.48,0,0,1,547.62,767.55Z"/><path class="cls-116" d="M585.56,775.61a1.27,1.27,0,0,1,1.54,1.27l-.71.73C586.11,776.94,585.84,776.27,585.56,775.61Z"/><path class="cls-2" d="M451.91,831c-.13.17-.29.56-.47.57a1.34,1.34,0,0,1-1.39-1.07c-.13-.39.23-.54.58-.51A1.53,1.53,0,0,1,451.91,831Z"/><path class="cls-2" d="M449.14,827.82a.84.84,0,0,1-1,.69c-.23,0-.44-.25-.66-.38a5.15,5.15,0,0,1,1-.62C448.67,827.46,448.94,827.72,449.14,827.82Z"/><path class="cls-117" d="M477.11,841.27c-.54-1.3-4.7-2.65-6-2.67a8.92,8.92,0,0,0-5.36,1.64c-.8.71-2.21,1.56-1.53,2.6.94,1.46,2,0,2.68-.68a4.84,4.84,0,0,1,3.94-1.79,8,8,0,0,1,4.8,2.23C476.87,843,477.89,843.14,477.11,841.27Z"/><path class="cls-118" d="M475.75,825.07c-2,0-2.52,1.46-2.83,3-.11.57.06,1.26.81,1,1.45-.52,3.49-.11,4-2.36A1.78,1.78,0,0,0,475.75,825.07Z"/><path class="cls-119" d="M583.51,816.34c-.48-.05-.89-.21-.92-.76s.39-1,1-1,1.2.14,1.11.85A1.15,1.15,0,0,1,583.51,816.34Z"/><path class="cls-120" d="M501.13,899c0,.65-.28,1.06-1,.79s-1.29-.53-1.3-1.29.76-1.1,1.39-1S501.13,898.31,501.13,899Z"/><path class="cls-97" d="M521.93,881.26a1,1,0,0,1-.84.89c-.37,0-.77-.15-.51-.54s.69-.45,1.07-.64S522.09,880.92,521.93,881.26Z"/><path class="cls-121" d="M537.42,764.79h7.38A8.88,8.88,0,0,1,537.42,764.79Z"/><path class="cls-26" d="M542.78,744l-.75-.62-2-3.35-1.59-1.64q.09-.42.15-.84a7.27,7.27,0,0,0-1.88-2.73,83.87,83.87,0,0,0-35.67-22.92c-9.53-3.15-19.5-4.85-28.89-8.52a46.46,46.46,0,0,1-9.93-4.75,38.06,38.06,0,0,1-3.81-3,44.57,44.57,0,0,1-5.28-4.91c-1.85-1.82-3.41-1.45-4.65.84-.31.58-.52,1.21-.84,1.79-.74,1.46-.91,3.17-1.92,4.52a10.47,10.47,0,0,0-1.89,3.49c-.75,2.12-2,2.1-3.52.76a40.48,40.48,0,0,0-3.69-3.37c-2-1.35-3.14-.94-4.1,1.29s-.69,4.87-.46,7.25c.46,5-1.12,8.34-6.11,9.74a87.72,87.72,0,0,0-21.19,16.24c-2.27,2.68-4.56,5.34-6.69,8.13a5.79,5.79,0,0,0-.49.79,66.25,66.25,0,0,0-6.4,11.72c-.56,1.27-.91,2.61-1.35,3.92a8.87,8.87,0,0,0-.44,1.5c-.05.33,0,.7-.32.93.42-.41.22-.7-.19-.94a22.27,22.27,0,0,0-1.25,6.81c-1,2-.76,4.09-.77,6.18h0c-.79,2.15-.28,4.41-.53,6.61.23,1.87.5,3.74.69,5.61a69.55,69.55,0,0,0,8.82,28.06c.69,1.2,2.13,2,2,3.8-5.69.61-8.58,4.09-9.56,9.48-.31,2.58,0,4.82,3,5.64,2.16-1.23,1.44-4.42,3.78-5.53.88-.85,1.62-2,2.67-2.5,6.57-3,5.1-7.43,3.21-12.81a61.3,61.3,0,0,1-3.38-27c.7-6.9,2.91-13.24,5.52-19.53h0c.67-.9,1.35-1.79,2-2.69,0-.22,0-.44,0-.66h0A84,84,0,0,1,414,750.1h0c11.75-10.12,24.91-13.5,39.79-8.13a29.69,29.69,0,0,1,16.19,13.77c11.35-19.74,39.41-21.25,54.64-7a23.88,23.88,0,0,0,1.37,2.29,5.34,5.34,0,0,0,1,.94c.75.39,1.38,1.23,2.39.59,1.54-1.47,3.8-1.37,5.49-2.5h0a58.87,58.87,0,0,1,10.73-1.5C546.43,746,543.63,745.57,542.78,744ZM401.84,758.09h0l0,0h0Zm-.73-1a3.84,3.84,0,0,0,.7,1l-.36-.34a3.21,3.21,0,0,0-.81-.1Zm130.65-11.81-.11-.08h.21Z"/><path class="cls-26" d="M542.92,934.82s32.57-7,14.29-47.78c-1.26-2.06,14.17-8,14.17-8s23.09,66-32.92,74.07A67.6,67.6,0,0,1,542.92,934.82Z"/><path class="cls-27" d="M539.69,945.3s29.88-4.85,34.23-20.68c-1.79,16.13-19,27.16-35.94,29.06C538.55,946.48,539.69,945.3,539.69,945.3Z"/><path class="cls-122" d="M388.88,660h1.65q8.82,0,11.72,8a5.84,5.84,0,0,1,.47,2.59c0,2.34-1.64,4.77-4.93,7.26q-5.1,1.77-5.15,2.11a18.57,18.57,0,0,0-.24,2.59v2.34c0,1.35-1,2.21-3,2.58v.23a6.17,6.17,0,0,1,3.75,6.11q0,5.46-6.8,6.33-5.48,0-6.34-6.81a7.23,7.23,0,0,1,2.59-5.15q-2.49,0-3.52-8.22V678.3q0-2.31,4.45-3.06c1.72-.8,2.58-1.73,2.58-2.81,0-.36-.54-.6-1.64-.71s-2.72.95-4.92,2.82a1.64,1.64,0,0,0-.7.24q-3.06-1-5.4-5.87V667.5c0-1.42,1.09-2.59,3.29-3.52A22.32,22.32,0,0,1,388.88,660Zm-14.07,7.74q0,1.89,4,5.4.36,0,.93-.93c-.78,0-1.18-.55-1.18-1.64h.71a1.83,1.83,0,0,0,.94,1.4,6.34,6.34,0,0,1,4.46-1.88c2,.3,3,1.08,3,2.35q0,3.95-6.8,5.16l-.24.47v1.64q.85,7,2.35,7h1.4c4.23-.4,6.34-1.11,6.34-2.11A3.48,3.48,0,0,0,391,683v-2.81q0-2.22,4.22-3,5.87-2.52,5.87-7c0-2.84-1.8-5.35-5.4-7.5a11.48,11.48,0,0,0-4.45-.94h-2.35q-6.63,0-13.84,5.39C375,667.5,375,667.73,374.81,667.73Zm2.34,0h.24l.46,1.65v.23h-.7l-.46-1.64Zm2.35-1.64v.71l-1.41.47-.24-.47v-.23Zm2.57,2.82v.7c0,.26-.47.58-1.4.95v-.71C380.67,669.59,381.13,669.28,382.07,668.91Zm.48-4.45v.46c0,.31-.55.63-1.64.94v-.47C380.91,665.08,381.45,664.76,382.55,664.46Zm-.94,29.32c0,2.7,1.72,4.27,5.16,4.69,2.71,0,4.28-1.72,4.69-5.17,0-2.7-1.72-4.27-5.16-4.69Q382.23,688.61,381.61,693.78Zm.46-14.08h.24c.37,0,.61.63.71,1.87h-.47c-.32,0-.48-.15-.48-.46Zm.24-1.88h1.41c.32,0,.47.21.47.48v.23h-1.88Zm.47,5.16h.7v1.88h-.7Zm1.17,8.45h.47a16,16,0,0,0-.47,1.64h-.7v-.23C383.35,691.9,383.58,691.43,384,691.43Zm0,3.05a8.68,8.68,0,0,1,.47,1.88h-.7l-.47-1.65A1.74,1.74,0,0,0,384,694.48Zm1.18-26.28h.23v.48a.4.4,0,0,1-.46.46H384a.41.41,0,0,1-.47-.46v-.24Zm.47-4.69.23.47v.24l-1.17.24H384v-.71ZM384,685.33h1.88V686H384Zm2.59-9.14c.31,0,.47.2.47.46s-.41.53-1.18.94h-.47v-.47C385.37,676.91,385.76,676.59,386.54,676.19Zm0,13.83h.23c.31.05.47.21.47.47a.42.42,0,0,1-.47.47h-1.41v-.7Zm-.94,6.57h.23c.94.15,1.41.39,1.41.7v.48H387c-.94-.17-1.41-.4-1.41-.71Zm1.64-28.15c.94.37,1.41.68,1.41.94v.23h-.23l-1.65-.47v-.23C386.82,668.59,387,668.44,387.24,668.44Zm1.64,15.72v.47c0,.36-.55.6-1.64.7l-.23-.47v-.23A16.3,16.3,0,0,0,388.88,684.16Zm0-21.35.24.47v.23l-1.65.24h-.23v-.7Zm-.23,11.27h.7v.46q-.62,1.15-.93,1.17h-.48v-.47A2.19,2.19,0,0,0,388.65,674.08Zm0,16.64h.47a2.13,2.13,0,0,0,1.16.71v.23c0,.32-.15.48-.46.48a2.21,2.21,0,0,0-1.17-.71Zm.47-19.93h.7v1.88h-.7Zm.23,10.55h.23c.32,0,.47.21.47.47v1.41h-.7l-.23-1.17A1.82,1.82,0,0,0,389.35,681.34Zm0-3.28h.7v1.87h-.7Zm.47,15.48h.71v.24l-.48,1.63h-.23a.41.41,0,0,1-.47-.46A3.81,3.81,0,0,0,389.82,693.54Zm.71-30.73h1.63v.94l-.47-.24h-1.16Zm2.11,13.38v.46c-.16.47-.63.7-1.41.7H391v-.7Zm1.16-12.91,1.65.23v1a8,8,0,0,0-1.88-.48A1.6,1.6,0,0,0,393.8,663.28ZM395.68,675v.7a1.64,1.64,0,0,0-.93.48H394v-.71Zm1.18-10.55h.46c.25,0,.56.31.95.93v.7H398c-.2,0-.59-.39-1.16-1.17Zm1.41,8.91c.3,0,.46.2.46.46a1.58,1.58,0,0,1-1.64.95v-.7A2.22,2.22,0,0,0,398.27,673.37Zm.93-6.34c.37,0,.6.63.7,1.88h-.7l-.47-1.64Zm0,3.29h.23c.32,0,.47.23.47.7l-.23,1.18H399v-.71Z"/><path class="cls-122" d="M451.44,612.16h2.15q11.52,0,15.29,10.42a7.47,7.47,0,0,1,.62,3.37q0,4.59-6.43,9.48-6.66,2.3-6.73,2.76a23.7,23.7,0,0,0-.31,3.37v3.05q0,2.64-4,3.38v.3q4.89,2.24,4.9,8,0,7.14-8.87,8.27-7.15,0-8.28-8.89,0-3.45,3.37-6.73-3.24,0-4.59-10.71v-2.14q0-3,5.81-4,3.38-1.56,3.37-3.67c0-.47-.71-.78-2.14-.92s-3.56,1.23-6.42,3.67a2.18,2.18,0,0,0-.92.32q-4-1.35-7-7.66V622c0-1.85,1.43-3.39,4.29-4.59Q443.56,612.17,451.44,612.16Zm-18.37,10.1c0,1.65,1.74,4,5.21,7,.31,0,.72-.41,1.22-1.22-1,0-1.54-.72-1.54-2.14h.92a2.38,2.38,0,0,0,1.23,1.83,8.27,8.27,0,0,1,5.82-2.45c2.65.39,4,1.4,4,3.06q0,5.15-8.88,6.74l-.31.6v2.16q1.11,9.18,3.07,9.18h1.83q8.26-.8,8.27-2.76a4.48,4.48,0,0,0,.3-2.15v-3.67q0-2.9,5.51-4,7.67-3.28,7.66-9.18,0-5.58-7-9.8a15.23,15.23,0,0,0-5.81-1.22h-3.07q-8.65,0-18.07,7C433.37,622,433.27,622.26,433.07,622.26Zm3.06,0h.31l.61,2.15v.3h-.92l-.61-2.13Zm3.07-2.14V621l-1.84.62-.31-.62v-.3Zm3.36,3.68v.91c0,.35-.62.76-1.84,1.24V625C440.72,624.69,441.33,624.28,442.56,623.8Zm.61-5.82v.61c0,.41-.71.82-2.14,1.23v-.62C441,618.79,441.75,618.39,443.17,618ZM442,656.25q0,5.29,6.73,6.13,5.31,0,6.13-6.75,0-5.29-6.73-6.12Q442.77,649.51,442,656.25Zm.61-18.36h.31c.48,0,.79.81.92,2.44h-.62a.54.54,0,0,1-.61-.61Zm.31-2.46h1.84c.41.06.61.27.61.62v.3h-2.45Zm.6,6.73h.92v2.45h-.92Zm1.54,11h.61a18.55,18.55,0,0,0-.61,2.14h-.92V655C444.22,653.81,444.53,653.19,445,653.19Zm0,4a11.79,11.79,0,0,1,.61,2.45h-.91l-.62-2.15A2.27,2.27,0,0,0,445,657.17Zm1.53-34.29h.3v.61a.53.53,0,0,1-.6.61H445a.54.54,0,0,1-.62-.61v-.31Zm.62-6.13.3.62v.3l-1.53.31H445v-.91ZM445,645.23h2.45v.92H445Zm3.37-11.94c.41.07.62.27.62.61s-.53.69-1.54,1.23h-.62v-.62C446.86,634.23,447.37,633.83,448.38,633.29Zm0,18.05h.3c.41.07.62.28.62.62a.55.55,0,0,1-.62.62h-1.84v-.92Zm-1.22,8.58h.3c1.23.21,1.84.51,1.84.92v.62H449c-1.23-.21-1.84-.52-1.84-.92Zm2.14-36.74q1.83.72,1.83,1.23v.3h-.3l-2.15-.61v-.3C448.75,623.38,449,623.18,449.3,623.18Zm2.14,20.52v.61c0,.48-.72.78-2.14.92l-.3-.62v-.3A19.82,19.82,0,0,0,451.44,643.7Zm0-27.87.31.62v.3l-2.15.32h-.3v-.92Zm-.31,14.71h.92v.6c-.53,1-.94,1.52-1.22,1.54h-.61v-.62A2.78,2.78,0,0,0,451.13,630.54Zm0,21.72h.62c.67.62,1.17.93,1.52.93v.31a.53.53,0,0,1-.6.61,2.88,2.88,0,0,0-1.54-.92Zm.62-26h.92v2.45h-.92Zm.3,13.77h.3c.42.06.62.27.62.62v1.84h-.92l-.3-1.54A2.23,2.23,0,0,0,452.05,640Zm0-4.29H453v2.46h-.92Zm.62,20.22h.92v.3l-.62,2.14h-.3a.54.54,0,0,1-.62-.6A5,5,0,0,0,452.67,656Zm.92-40.12h2.14v1.24l-.62-.32h-1.52Zm2.75,17.46v.61c-.21.61-.82.92-1.83.92h-.32v-.92Zm1.52-16.84,2.16.3V618a10.63,10.63,0,0,0-2.46-.61A2.23,2.23,0,0,0,457.86,616.45Zm2.46,15.31v.92a2.15,2.15,0,0,0-1.22.61h-.92v-.91ZM461.85,618h.61c.32,0,.73.41,1.23,1.22v.92h-.32c-.27,0-.77-.51-1.52-1.53Zm1.84,11.64q.6.09.6.6a2,2,0,0,1-2.14,1.24v-.92A2.88,2.88,0,0,0,463.69,629.62Zm1.22-8.28c.48,0,.79.82.92,2.46h-.92l-.62-2.14Zm0,4.29h.3c.41,0,.62.31.62.92l-.3,1.54h-.92v-.92Z"/><path class="cls-122" d="M527.87,649.22H530q11.52,0,15.29,10.41a7.38,7.38,0,0,1,.62,3.38q0,4.59-6.43,9.48-6.66,2.29-6.73,2.76a23.58,23.58,0,0,0-.31,3.37v3c0,1.76-1.33,2.89-4,3.37v.31q4.9,2.24,4.9,8,0,7.14-8.87,8.26-7.15,0-8.28-8.88,0-3.45,3.37-6.73-3.24,0-4.59-10.71v-2.14q0-3,5.81-4c2.25-1,3.37-2.27,3.37-3.67,0-.48-.71-.78-2.13-.92s-3.56,1.23-6.43,3.67a2.18,2.18,0,0,0-.92.32q-4-1.37-7.05-7.67V659q0-2.79,4.29-4.59Q520,649.21,527.87,649.22Zm-18.37,10.1q0,2.46,5.21,7c.31,0,.72-.4,1.22-1.22-1,0-1.54-.71-1.54-2.13h.92a2.37,2.37,0,0,0,1.24,1.83,8.25,8.25,0,0,1,5.81-2.45q4,.57,4,3.06,0,5.14-8.89,6.74l-.31.6v2.15q1.11,9.19,3.07,9.19h1.84q8.27-.79,8.26-2.76a4.48,4.48,0,0,0,.3-2.15v-3.67c0-1.94,1.84-3.26,5.51-4q7.67-3.29,7.66-9.18,0-5.58-7-9.8a15.23,15.23,0,0,0-5.81-1.22h-3.07q-8.65,0-18.07,7C509.8,659,509.7,659.32,509.5,659.32Zm3.06,0h.31l.61,2.15v.3h-.92l-.61-2.14Zm3.07-2.14v.92l-1.84.62-.31-.62v-.3Zm3.36,3.67v.92c0,.34-.62.76-1.84,1.24v-.92C517.15,661.75,517.76,661.34,519,660.85Zm.61-5.81v.61c0,.41-.71.82-2.14,1.23v-.62C517.46,655.85,518.18,655.45,519.6,655Zm-1.22,38.27q0,5.3,6.73,6.13,5.31,0,6.13-6.75,0-5.3-6.73-6.12Q519.2,686.57,518.38,693.31Zm.61-18.37h.31c.48,0,.79.82.92,2.44h-.62a.53.53,0,0,1-.61-.6Zm.31-2.45h1.84c.41.06.61.27.61.62v.3H519.3Zm.6,6.73h.92v2.45h-.92Zm1.54,11h.62a17.57,17.57,0,0,0-.62,2.14h-.92v-.3C520.65,690.86,521,690.25,521.44,690.25Zm0,4a12.11,12.11,0,0,1,.62,2.45h-.92l-.62-2.15A2.23,2.23,0,0,0,521.44,694.23ZM523,659.94h.31v.61a.54.54,0,0,1-.61.61h-1.23a.54.54,0,0,1-.62-.61v-.31Zm.62-6.13.3.62v.3l-1.53.31h-.92v-.91Zm-2.15,28.48h2.45v.92h-2.45Zm3.37-11.94c.41.06.62.27.62.61s-.53.69-1.54,1.23h-.61v-.62C523.29,671.29,523.8,670.89,524.81,670.35Zm0,18h.3c.41.07.62.28.62.62a.55.55,0,0,1-.62.62h-1.83v-.92ZM523.59,697h.3c1.23.2,1.84.51,1.84.92v.62h-.3c-1.23-.21-1.84-.52-1.84-.92Zm2.14-36.74c1.22.48,1.84.89,1.84,1.23v.3h-.31l-2.15-.61v-.31C525.18,660.44,525.39,660.24,525.73,660.24Zm2.14,20.52v.61c0,.47-.72.78-2.14.92l-.3-.62v-.3A19.82,19.82,0,0,0,527.87,680.76Zm0-27.87.31.62v.3l-2.15.32h-.3v-.92Zm-.3,14.71h.91v.6c-.53,1-.94,1.52-1.22,1.54h-.61v-.62A2.85,2.85,0,0,0,527.57,667.6Zm0,21.72h.61c.67.62,1.17.93,1.52.93v.3c0,.42-.2.62-.6.62a2.86,2.86,0,0,0-1.53-.92Zm.61-26h.92v2.45h-.92Zm.3,13.77h.31c.41.06.61.27.61.62v1.84h-.92l-.3-1.54A2.23,2.23,0,0,0,528.48,677.08Zm0-4.29h.92v2.46h-.92ZM529.1,693H530v.3l-.62,2.14h-.3a.54.54,0,0,1-.62-.61A5,5,0,0,0,529.1,693Zm.92-40.12h2.14v1.24l-.62-.32H530Zm2.75,17.46V671c-.21.61-.82.91-1.83.91h-.32V671Zm1.53-16.84,2.15.3V655a10.63,10.63,0,0,0-2.46-.61A2.33,2.33,0,0,0,534.3,653.51Zm2.45,15.31v.92a2.15,2.15,0,0,0-1.22.61h-.92v-.92ZM538.28,655h.61c.32,0,.73.41,1.23,1.22v.92h-.32c-.27,0-.77-.51-1.52-1.53Zm1.84,11.64q.6.09.6.6a2.06,2.06,0,0,1-2.14,1.24v-.92A2.88,2.88,0,0,0,540.12,666.68Zm1.22-8.28c.48,0,.79.82.92,2.45h-.92l-.62-2.13Zm0,4.29h.3c.41,0,.62.31.62.92l-.3,1.53H541v-.91Z"/><path class="cls-123" d="M468.28,860.75c-40.7,1-71.66-11.24-71.14-30.38a18.93,18.93,0,0,0-1.2,5.1c-.53,19.15,31.37,33.18,72.08,34.19s74.14-13.7,74.67-32.85h0C537.23,853.54,505.14,859.9,468.28,860.75Z"/><ellipse class="cls-54" cx="442.23" cy="837.61" rx="9.34" ry="5.74"/><ellipse class="cls-54" cx="499.23" cy="840.7" rx="9.34" ry="5.74"/><ellipse class="cls-124" cx="497.59" cy="811.26" rx="15.47" ry="16.12"/><ellipse class="cls-124" cx="437.01" cy="809.89" rx="15.47" ry="16.12"/><ellipse class="cls-125" cx="441.26" cy="805.15" rx="5.43" ry="5.66"/><ellipse class="cls-125" cx="501.49" cy="805.15" rx="5.43" ry="5.66"/><path class="cls-26" d="M594.72,798.52l-.76.26a47.59,47.59,0,0,0-6.78-14.27c-2.28,2.31-5.24,3.24-8.27,3.79-5.9,1.08-11.9,1.63-17.58,3.78-1.86.69-3.65,1.9-5.74,1.61-3.23-.44-3.86,1.17-3.4,3.89.17,1-.08,2,.63,2.87.17-.07.18-.31.38-.35,0,.45-.05-.11,0,.33a68.6,68.6,0,0,1,.28,11.9c-.22,4.09-.48,8.23-2,12.13-.43,1.37-.87,2.74-1.29,4.11C545.26,844.66,536,857,520,863.45a28.51,28.51,0,0,0-7.44,2.81,67.39,67.39,0,0,1-9.88,4.14c-19,6.51-38.32,7.05-57.8,2.26-1.6-.4-3.24-1.1-4.78.2-2.53,11.15-6.92,21.67-10.91,32.32-2.21,5.89-4.15,11.87-4.37,18.14a37,37,0,0,0,12,29.41c.55,1.66,2.55,1.91,3.28,3.41.9,2.57,2.84,3.71,5.43,4a90.16,90.16,0,0,0,33.19,10.57c3.94.48,4.27.38,4.34-3.51,0-.56,0-1.12,0-1.67h0c1.45-1.36,1.81-.19,2.24.94a42.88,42.88,0,0,1,1.87,8.08c1.17,6.44,2.1,13,6,18.51,5.71,6.87,14.29,9.14,22.26,5.46,7.26-3.36,11.05-9.51,12.23-17.27a87.38,87.38,0,0,0,.73-12,16.08,16.08,0,0,0-3.85-11.14c-1.65-1.89-1.32-2.77.92-3.45,5.08-1.54,8.21-5.21,10.4-9.8,3.95-8.27,3.42-17,2-25.6-1.14-6.86-4.77-12.72-8.51-18.44-2.83-4.34-5.32-8.78-6-14-.65-.82-.34-2.46-1.3-3,1.32-.39,2.57-.82,1-3.11-.23-.12-1,.28-.5-.49a1.72,1.72,0,0,0,0-.5c1.3,1.28,2.35,3.06,4.73,2l.14.11c4,.07,7.52-1.84,11.37-2.46a83.17,83.17,0,0,0,25.1-8c16-8.2,27-20.53,31.93-38,.18-.7.36-1.4.55-2.1,0-.45,0-.89,0-1.33C600,819.53,594.72,798.52,594.72,798.52Zm-86.6,133.9c0-.39-.22-.54-.53-.63-2,1.17-1.29,3.23-1.61,5a8.14,8.14,0,0,1-2.11,7.07c-4.94,7.46-11.09,13.56-19.34,17.33-.4.18.15,0-.21.27-1.42,1.65-3.21.81-4.88.74a17.8,17.8,0,0,0-3.85.41c-.89.21-2.1.25-2,1.55l-.14-.05a2.17,2.17,0,0,0-1.81-.54c-1.53.51-3.22.15-4.71.89-.22.11-.54.22-.6-.23.6.53.61,0,.73-.38a2.14,2.14,0,0,0-1.85-1.24c-5.49-.84-10.42-3.14-15.29-5.65-.37.05-.73.09-1.08.11l-6.69-5.75a.94.94,0,0,0-.5.28,11.27,11.27,0,0,0-1.84-3.14c-1.13-1.7-2.76-3.11-2.89-5.34a27.73,27.73,0,0,0-2.88-6.52c-.94-.83-.69-1.89-.6-2.92a52.81,52.81,0,0,1,.7-15.62c-.35-2.47.85-4.51,1.84-6.6,1.89-3.81,3.48-7.82,7.08-10.47a2.88,2.88,0,0,0,1.48-1.66,4.22,4.22,0,0,1,3.45-3.43c3.85-2.45,7.65-5,11.33-7.67,5.79-2.8,11.67-3.5,17.69-.71,4.69,2.25,9.16,4.91,13.63,7.54,1.84.57,2.82,2.37,4.46,3.22a.61.61,0,0,0-.09.2l3.72,4.5a2,2,0,0,0-.15.5,4.48,4.48,0,0,0,1,2.77,44,44,0,0,1,6.61,16.24,2.88,2.88,0,0,0,1.22,2.26c.09.38.82-.65.59.24a12.3,12.3,0,0,0,.08,6.83C508.12,932,508.3,932.18,508.12,932.42Zm11.3-47.83a2,2,0,0,1,0-.64.72.72,0,0,0,.27.25A2.14,2.14,0,0,0,519.42,884.59Zm1.23-6.75.33-.47a3.18,3.18,0,0,0,.13.51A1.83,1.83,0,0,0,520.65,877.84Z"/><path class="cls-126" d="M586.35,785.32l3.2-3S602,800.18,596.87,830C598.92,810.26,590.27,784.37,586.35,785.32Z"/><path class="cls-2" d="M509.32,924.87c0,11.13-.87,22.26-7.6,29.66-7,7.72-20.11,11.49-31,11.49A37.33,37.33,0,0,1,443,953.45a42.46,42.46,0,0,1-10.82-28.58c0-11.27,6.08-20.68,13-28.11S461,886.3,471.71,886.3s18.06,5,25,12.34S509.32,913.44,509.32,924.87Z"/><path class="cls-27" d="M470.74,967.31a38.39,38.39,0,0,1-28.7-13,43.66,43.66,0,0,1-11.16-29.44c0-9.83,4.36-19.32,13.32-29,6.87-7.41,15.61-10.87,27.51-10.87,9.74,0,17.51,3.82,26,12.75,6.54,6.9,12.92,14.69,12.92,27.11,0,11.32-1,22.85-7.93,30.53C494.68,964.19,480.48,967.31,470.74,967.31Zm1-79.73c-11.13,0-19.28,3.2-25.63,10-8.5,9.17-12.63,18.08-12.63,27.24a41.16,41.16,0,0,0,10.49,27.72,35.89,35.89,0,0,0,26.8,12.15c9.94,0,23.08-3.43,30-11.07,6-6.64,7.27-16.31,7.27-28.8,0-11.48-6-18.81-12.22-25.34C487.88,891.16,480.68,887.58,471.71,887.58Z"/><path class="cls-127" d="M1284,728.36a10.92,10.92,0,0,0-4.57-.67,50,50,0,0,0-12,2.27,153.09,153.09,0,0,0-31.19,13.27c-.8.44-1,.24-1.13-.52-.2-.93-.47-1.83-.73-2.74a3.72,3.72,0,0,0-4.91-2.8l-20.63,5.51c-7.38,2-14.77,3.92-22.13,5.94a10.72,10.72,0,0,0-6.71,5.25q-19.71,34.86-39.47,69.68c-1.09,1.92-.56,3.76,1.46,4.93q15.3,8.85,30.61,17.67c8.7,5,17.42,10,26.08,15.09a3.73,3.73,0,0,0,5.58-1.48q20.27-34.6,40.63-69.12a10,10,0,0,0,.93-7.86c-1.77-6.83-3.62-13.65-5.49-20.45-.22-.81,0-1.06.72-1.34a156.22,156.22,0,0,0,32.62-16.64,48.28,48.28,0,0,0,10.2-8.66,9.06,9.06,0,0,0,2-3.46A3,3,0,0,0,1284,728.36Zm-68.91,33.39a11.57,11.57,0,0,1,1.41-2.13.73.73,0,0,1,.86-.28c2.79.6,4.52,2.41,5.76,5a27.92,27.92,0,0,1-3.83.41,10,10,0,0,1-3-.33C1214.8,764,1214.42,763.17,1215.08,761.75Zm-9.35,4.9c.62-4.36,4.77-7.89,8.94-7.53-.4.69-.85,1.34-1.18,2a3.25,3.25,0,0,0,2.14,4.82,8.75,8.75,0,0,0,1.15.27,18.8,18.8,0,0,0,6.26-.2c.57-.08.82,0,.89.63a9.79,9.79,0,0,1,0,2.91,9.22,9.22,0,1,1-18.2-2.94Zm6.13,66.38c-.77,1.57-1.58,3.11-2.28,4.7a4,4,0,0,1-3,2.4,15.34,15.34,0,0,1-5.19.2,50.91,50.91,0,0,1-12.08-3,88.15,88.15,0,0,1-17.49-8.52,46.37,46.37,0,0,1-10.93-9,10.84,10.84,0,0,1-2.22-3.72,3.44,3.44,0,0,1,.17-2.72c1.1-2.21,2.17-4.44,3.25-6.66a6.93,6.93,0,0,0,1.33,3.89,28.37,28.37,0,0,0,7,7,83.78,83.78,0,0,0,29,14,30.22,30.22,0,0,0,8.24,1.13,7.79,7.79,0,0,0,5-1.41Zm2.68-5.59a3.1,3.1,0,0,1-1.91,1.39,13.15,13.15,0,0,1-5.47.42,50.15,50.15,0,0,1-12.54-3,87.3,87.3,0,0,1-15.83-7.53,51.23,51.23,0,0,1-12.15-9.53,11.94,11.94,0,0,1-2.5-4,3.57,3.57,0,0,1,.18-2.86c1.1-2.18,2.15-4.38,3.21-6.58a6.83,6.83,0,0,0,1.24,3.71,26.78,26.78,0,0,0,6.22,6.48,83,83,0,0,0,22.16,12.25,54,54,0,0,0,13.16,3.43,19.49,19.49,0,0,0,3,.12,7.22,7.22,0,0,0,4.85-1.57C1216.87,822.69,1215.73,825.08,1214.54,827.44Zm5.44-11.16a3.19,3.19,0,0,1-2,1.47,14,14,0,0,1-5.87.34,52.08,52.08,0,0,1-12.36-3.09,87.55,87.55,0,0,1-15.33-7.3,51.79,51.79,0,0,1-12.29-9.6,12,12,0,0,1-2.47-3.85,3.78,3.78,0,0,1,.17-3.23c1.08-2.1,2.08-4.24,3.12-6.37a8.42,8.42,0,0,0,2.24,5,36.92,36.92,0,0,0,8,7.15,86.11,86.11,0,0,0,24.51,11.92,37.86,37.86,0,0,0,10,1.83,16.68,16.68,0,0,0,1.87,0,7.22,7.22,0,0,0,3.91-1.32C1222.28,811.58,1221.16,813.94,1220,816.28Zm3.82-9.91a10,10,0,0,1-3.9.6,39.41,39.41,0,0,1-11.44-2.12,87.32,87.32,0,0,1-22.07-10.59,43.82,43.82,0,0,1-8.8-7.39,12.64,12.64,0,0,1-2.36-3.55c-1-2.45-.2-4.19,2.37-4.88a16.58,16.58,0,0,1,6.73-.08,61.6,61.6,0,0,1,14.25,4.15c1.86.75,3.67,1.59,5.48,2.46a73.12,73.12,0,0,1,16.15,10.37,25.07,25.07,0,0,1,4.12,4.43,8.94,8.94,0,0,1,1.37,2.7A3,3,0,0,1,1223.8,806.37Zm60.39-74.4a8.45,8.45,0,0,1-1.76,2.86,46.55,46.55,0,0,1-9,7.68,160.41,160.41,0,0,1-33,17c-.68.27-.81,0-1-.54q-1.67-6.4-3.41-12.78a.92.92,0,0,1,.55-1.27,161.71,161.71,0,0,1,28.1-12.37,59.7,59.7,0,0,1,14.76-3.17,10.06,10.06,0,0,1,3.7.44A1.5,1.5,0,0,1,1284.19,732Z"/><path d="M278.43,306.85V231.69h11.38v31.67h13.53V231.69h11.38v75.16H303.34V274.1H289.81v32.75Z"/><path d="M349.62,290.21H337.38l-2.47,16.64H323.53L336,231.69h15.25l12.45,75.16H352.09Zm-1.51-11-4.61-31.46-4.62,31.46Z"/><path d="M406.64,231.69l-12.46,75.16H378.93l-12.45-75.16h11.6l8.59,59.05,8.59-59.05Z"/><path d="M415.44,231.69h32.33v10.73H426.83v20.94h16.64V274.1H426.83v22h20.94v10.74H415.44Z"/><path d="M516.6,231.69l-15.25,43.7v31.46H490V275.39l-15.25-43.7h12.13l8.81,28.67,9-28.67Z"/><path d="M522.08,289.78v-41c0-10.85,7.3-18.15,18.25-18.15s18.25,7.3,18.25,18.15v41c0,10.84-7.3,18.14-18.25,18.14S522.08,300.62,522.08,289.78Zm25.12,0v-41c0-4.72-2.68-7.41-6.87-7.41s-6.87,2.69-6.87,7.41v41c0,4.72,2.68,7.41,6.87,7.41S547.2,294.5,547.2,289.78Z"/><path d="M569.64,290.31V231.69H581v58.62c0,4.41,2.68,6.88,6.33,6.88s6.34-2.47,6.34-6.88V231.69h11.16v58.62c0,10.53-7.08,17.61-17.5,17.61S569.64,300.84,569.64,290.31Z"/><path d="M635.79,289.46v-2.69l11-1.18v2.79c0,5.48,2.79,8.81,7.3,8.81s7.31-2.8,7.31-7.2c0-4.72-1.94-8.16-10.42-16.21-11.27-10.63-14.5-16.43-14.5-24.7,0-11.17,6.45-18.47,17.29-18.47S671,237.91,671,249.19v1.93l-11,1.18v-2.14c0-5.8-2.26-8.81-6.23-8.81s-6.23,2.47-6.23,7.19S650,256.71,658,264.76c11,10.95,14.49,16.43,14.49,24.7,0,10.73-7.51,18.46-18.36,18.46S635.79,300.19,635.79,289.46Z"/><path d="M682.18,231.69H714.5v10.73H693.56v20.94H710.2V274.1H693.56v22H714.5v10.74H682.18Z"/><path d="M724.06,231.69h32.32v10.73H735.44v20.94h16.64V274.1H735.44v22h20.94v10.74H724.06Z"/><path d="M765.94,231.69H778.5L793,282.15V231.69h11.17v75.16h-12l-15-48.1v48.1H765.94Z"/><path d="M372.67,335.61V465.85H353V376.54l-18.42,89.31H320.76l-18.42-89.31v89.31H283V335.61H310.9L328,418.78l16.37-83.17Z"/><path d="M459.75,335.61l-26.42,75.73v54.51H413.6V411.34l-26.42-75.73h21l15.26,49.68,15.63-49.68Z"/><path d="M511.47,335.61h30.89c18.79,0,30.89,12.28,30.89,31.07v68.1c0,18.79-12.1,31.07-30.89,31.07H511.47Zm30,111.64c7.63,0,12.09-4.47,12.09-12.1V366.31c0-7.63-4.46-12.1-12.09-12.1H531.2v93Z"/><path d="M631.67,437H610.46l-4.28,28.84H586.46L608,335.61h26.42L656,465.85H636Zm-2.6-19-8-54.51-8,54.51Z"/><path d="M671.3,335.61h30.89c18.79,0,30.88,12.28,30.88,31.07v68.1c0,18.79-12.09,31.07-30.88,31.07H671.3Zm30,111.64c7.63,0,12.09-4.47,12.09-12.1V366.31c0-7.63-4.46-12.1-12.09-12.1H691v93Z"/><path d="M766.56,429.38c0-18.79,6.89-27.72,13.21-35.72,5.77-7.26,11-14.33,11-27.17,0-9.11-4.28-14.14-11.91-14.14s-11.9,5-11.9,14.14v7.82H748V368c0-21.21,11.53-34.23,31.07-34.23s31.45,12.09,31.45,32.19c0,17.3-7.45,26.79-14.7,35.53-6.33,7.63-12.47,15.26-12.47,27.91v3H766.56Zm-1.48,16.75H784.8v19.72H765.08Z"/><path d="M282.88,484.19h6.27v41.4h-6.27Z"/><path d="M305.83,484.19h20v5.91H319v35.49h-6.27V490.1h-6.86Z"/><path d="M330.67,525.59v-41.4h6.26v17.45h7.46V484.19h6.27v41.4h-6.27v-18h-7.46v18Z"/><path d="M357.51,484.19h6.27v41.4h-6.27Z"/><path d="M370.64,484.19h6.92l8,27.8v-27.8h6.15v41.4h-6.63l-8.28-26.5v26.5h-6.15Z"/><path d="M407.19,508.56l-2.37,4.55v12.48h-6.27v-41.4h6.27V501l8.28-16.8h6.74L411,501.75l9.47,23.84h-6.75Z"/><path d="M467.69,484.19l-6.09,41.4h-6.92l-3.32-27.27-3.31,27.27h-6.92L435,484.19h6.33l3.43,28,3.43-28h6.39l3.43,28,3.43-28Z"/><path d="M472.59,484.19H490.4v5.91H478.86v11.54H488v5.91h-9.17v12.12H490.4v5.92H472.59Z"/><path d="M527.77,512.34v3.37c0,6-3.84,9.88-9.82,9.88H507.48v-41.4h9.94c6,0,9.82,3.9,9.82,9.88v2.18c0,3.73-1.48,6.39-4.2,7.93C526.06,505.6,527.77,508.38,527.77,512.34Zm-14-22.24v11.24h2.78c3,0,4.44-1.42,4.44-4.44V494a3.52,3.52,0,0,0-3.85-3.85Zm7.75,21.59c0-3-1.42-4.44-4.43-4.44h-3.32v12.42h3.91a3.51,3.51,0,0,0,3.84-3.84Z"/><path d="M532.91,516.18V493.59c0-6,4-10,10.06-10s10,4,10,10v22.59c0,6-4,10-10,10S532.91,522.16,532.91,516.18Zm13.84,0V493.59c0-2.6-1.48-4.08-3.78-4.08s-3.79,1.48-3.79,4.08v22.59c0,2.61,1.48,4.09,3.79,4.09S546.75,518.79,546.75,516.18Z"/><path d="M557.34,484.19h20v5.91h-6.86v35.49H564.2V490.1h-6.86Z"/><path d="M582.17,525.59v-41.4h6.27v17.45h7.46V484.19h6.26v41.4H595.9v-18h-7.46v18Z"/><path d="M634.16,497.08v-3.49c0-2.6-1.48-4.08-3.79-4.08s-3.78,1.48-3.78,4.08v22.59c0,2.61,1.48,4.09,3.78,4.09s3.79-1.48,3.79-4.09v-7.33h-3.79v-5.91h10.06v13.24c0,6-4,10-10.06,10s-10-4-10-10V493.59c0-6,4-10,10-10s10.06,4,10.06,10v3.49Z"/><path d="M646,516.18V493.59c0-6,4-10,10.06-10s10.05,4,10.05,10v22.59c0,6-4,10-10.05,10S646,522.16,646,516.18Zm13.84,0V493.59c0-2.6-1.48-4.08-3.78-4.08s-3.79,1.48-3.79,4.08v22.59c0,2.61,1.48,4.09,3.79,4.09S659.82,518.79,659.82,516.18Z"/><path d="M670.41,484.19h20v5.91h-6.86v35.49h-6.27V490.1h-6.86Z"/><path d="M707.07,484.19h6.27v35.48h11.18v5.92H707.07Z"/><path d="M728.83,516.18V493.59c0-6,4-10,10.06-10s10.05,4,10.05,10v22.59c0,6-4,10-10.05,10S728.83,522.16,728.83,516.18Zm13.84,0V493.59c0-2.6-1.48-4.08-3.78-4.08s-3.79,1.48-3.79,4.08v22.59c0,2.61,1.48,4.09,3.79,4.09S742.67,518.79,742.67,516.18Z"/><path d="M753.85,516v-1.48l6-.65v1.54c0,3,1.54,4.85,4,4.85a3.71,3.71,0,0,0,4-4c0-2.6-1.06-4.49-5.73-8.93-6.21-5.85-8-9.05-8-13.6,0-6.15,3.55-10.17,9.52-10.17s9.53,4,9.53,10.23v1.06l-6,.65v-1.18c0-3.19-1.24-4.85-3.43-4.85s-3.43,1.36-3.43,4,1.3,4.5,5.74,8.93c6,6,8,9.05,8,13.61a10.11,10.11,0,1,1-20.22,0Z"/><path d="M777.21,484.19h20v5.91h-6.86v35.49h-6.27V490.1h-6.86Z"/><path class="cls-127" d="M1301.83,383.72c3.67-1.1,5.32-4.16,4.08-8.3l-10.8-35.93c-1.24-4.14-4.29-5.79-8-4.69s-5.32,4.16-4.08,8.3L1293.86,379C1295.11,383.18,1298.17,384.82,1301.83,383.72Z"/><path class="cls-127" d="M1656.12,232.94c-35,.82-63-1.58-85.33-6.12,0-.44-.12-.89-.2-1.35h0c2.2-5.71,4.37-11.43,2.64-17.73h0c-.67-3.78-3.76-4.59-6.75-5.51-.53-.92-1-1.85-1.57-2.77h0c-1.5-4.45-5.47-4.13-9-4.66h0c-.13-.4-.25-.79-.36-1.19h0c-2.24-7.31-7.56-7.33-13.56-5.73h0c-4.93-7.75-9.08-8.63-18.09-3.82h0c-3.48,1-5.67,3.67-8,6.22a35.12,35.12,0,0,0-6.52,10.47C1473.54,171.22,1486.73,94,1486.73,94h-19.89c-6.26,44.29,11.24,110.16,37.15,127.49-1,5.89.38,10.46,4.79,14.52,4.15,3.83,7.37,8.2,6.94,14.29l-1.53,3.9h0c-.47,1.44-1,2.88-1.43,4.32-7.08,8.71-16.73,14-26.1,19.68-2.39,1.25-4.82,2.43-7.17,3.76-8.88,5-14.51,13.22-20.6,21h0c-.54-1-1.19-3.51-2.33-1.6-2.31,3.86-4.5,10.51-3.84,12.55,2,6.24-1.59,6.49-5,8-2.27,1-4.5,2-6.74,3a24.86,24.86,0,0,0-8.21,5.52c-8.64,6.47-17.19,13.06-24.9,20.66h0c-6.94,4.56-11.89,11.61-19.37,15.51-.69-4.76,3.9-8.48,3-13-1.67-8.19,2.29-10.22,9.51-11.87,10.86-2.47,15.57-10.43,14.56-21.57-.27-2.94-1.12-5.82-1.6-8.74-.15-1-1.24-2.93,0-2.77,6.71.87,2.26-3.78,2-4.86-.73-3.51-2.15-7-5.21-9.34,2-3.21,1.18-6.39-.06-9.58h0a60.2,60.2,0,0,0-29-15.35h0c-8.56-2.92-21.09,1.07-26.21,8.35-2.05,1.37-3.28,1.1-5.24-.9a64,64,0,0,0-32.12-18.28h0c-8-3.35-16.18-6.22-23.5-11-3.7-2.46-6.21-6-8.75-9.53-.81-1.14-2.07-3.92-3.42-.21h0c-.36,3.77-.5,7.52,1.37,11.55-5.48-.94-10.13-3.48-15.21-.8,1,2,4.13,1.31,3.92,3.74-.23,2.79-2.83,1.68-4.32,2.21-5.65,2-11.36,3.81-15.92,7.91-1.48,1.33-3.86,2.73-3,5,.76,1.9,3.14.91,4.92,1,3.95.12.42,1.65.37,2.55a.6.6,0,0,0-.27.19,30.94,30.94,0,0,0-2.93,2.23c-9,8.49-14.32,19.36-19.1,30.52h0l-4-2.61h0c-4.71-5.26-11.63-4.53-16.42-2.84-10.21,3.59-19.24,9.83-23.42,20.85h0c-1,2.18-4.32,5.36,1.9,4.56l-.48,2.37h0c-.88,1.77-2.73,3.82-1.32,5.5,1.11,1.32,2.36-1.38,3.85-1.59,3.06,2-.32,3.41-.57,5.09-.33,2.18-1.17,6,.06,6.15,4.6.51,3.4,6.58,7.54,7a19.76,19.76,0,0,0-.43,3.3c.12,3.25-1.12,7.75,2.36,9s4.67-3.32,6.78-5.45h0c1.27,1.66-.24,2.93-.57,4.39-1.13,5-4.55,9.46-4.07,14.92h0c-3.82,24.19,4.65,41,26.46,51.8,6.76,3.34,13.91,5.87,20.81,8.95,9.12,4.07,19.25,5.95,27.29,12.41h0L1271.1,452c-3.24,1.37-5.38,3.82-7.77,7.4h6c-6.1,3.08-3.16,9.55-5.69,13.86-10.81,18.42-21.39,37-28.65,57.19-.44.5-.53.8-.43,1-3.26,7.25-4.88,15-6.16,22.75a93.44,93.44,0,0,0-1.68,35.14c.31,2.07-.37,4.79,2.78,5.49h0c-2.91,6,1,11,2.58,16.27q2.39,6.69,4.79,13.37h0a42.3,42.3,0,0,0,6.49,12.7h0a96.73,96.73,0,0,0,14,21.8q2.83,4.22,5.65,8.44h0c.31,1.3.86,2.56.07,3.94-3.77,6.59-4.1,14.37-6.13,21.42-2,6.83-.64,15.66,2.93,23,2.5,4.82.76,12.12,8.22,14h0c-.24,4.14-4.9,7.76-1.44,12.33,1.7,2.53,4.17,2.38,6.74,2,7.41-1.18,10.52-4.63,11.49-15.41,1.51-16.81,10.31-30.43,18.21-44.51h0c2.49-.25,5.29-1.19,7.12,1.14,3.37,4.29,8.32,5.31,13,6.92h0c2.42,7.77,6.82,13.93,14.27,17.62h0c6.71,5.18,14.49,5.65,22.5,5.21,1.68-.09.49-2.66,2.34-2.42,5.45,1.38,10.92.89,16.38.06,9.21-1,17.79-4.29,26.49-7.13,11.65-3.8,23.46-6.39,35.83-4.86,1.62,1.78.84,3.66.24,5.53q-4.36,8.16-8.72,16.32h0l-1.38,1.39h0c-2.21,3.12-4.36,6.29-6.65,9.36-4.83,6.47-9.75,12.48-19.28,11.6-3.49-.32-6.83,2-9.9,3.9-2,1.2-4.53,1.68-5.25,4.38-5.5,8.69-4.26,13.91,3.87,16.22a1.4,1.4,0,0,0,1,.41h0c2.19,3.65,5.73,4.19,9.53,4.17,5.94,0,11.88-.21,17.81,0,9.62.33,16.74-3.7,21.78-11.74a71.28,71.28,0,0,1,10.92-14c8.09-7.69,12.63-7,17.8,2.79.85,1.61,1.85,3.13,2.78,4.69,3.9,8.48,7,9.9,15,6.86h0c5.32-2.58,5-6.32,2.17-10.56l-4.87-7.31c-2.83-6.9-8.48-12.22-10.83-19.38a29.79,29.79,0,0,1-.43-14.64c1.51-6.32,2.61-12.92,1.4-19.55h0a3.64,3.64,0,0,0-2.14-3h0c-3.7-4.69-10-2.55-14.4-5.55h0c-14.38-1.22-22.94-10.5-30.22-21.66-2.88-4.42-6-8.67-9.11-13-8-11.11-11.87-11.53-22.08-2.67-1.16,1-1.82,3.46-4.23,2.21a203.73,203.73,0,0,1,15.3-28.43c7.07-10.95,14.55-21.33,29.38-21.82q27.54,40.47,76.39,43.84l1.35.32h0c2.56,1.48,5.38.73,8.09,1,2.9.26,6-1,8.66,1.15,10,7.86,18.65,16.51,17.59,30.74-.16,2-.38,4.18,1.35,5.81h0c1.64,3.14,4.23,3.21,7,2,5.66-2.48,7.49-6.89,6.62-12.89-1-6.54-4.72-12.16-6.46-18.77,9.76,1.79,15.09,7,16.72,16.32.66,3.76,2.4,7.41,4.1,10.89a20.81,20.81,0,0,0,4.55,6c3.81,3.51,9.44,5.79,13.07,2.49s12-5.68,7.67-14.31c-1.22-2.41-1-6-.37-8.81,1.68-7.95-1.34-14.35-5.72-20.48h0l-2.9-6.74h0c-2.6-10.12-6.5-19.26-17.07-23.69-.91-.38-1.43-1.69-2.14-2.56,3.69-3.77,7.51-7.42,11-11.33,18.39-20.36,33-42.83,38.43-70.28,1-6.31,2.64-12.6,2.86-18.94.27-7.53,2.11-15.28-1.2-22.67h0c-.06-13.46-2.29-26.46-8.22-38.68-5.31-13.21-12.81-24.8-24.64-33.16h0l-6.45-5.4-13.41-13.66h0l-2.46-3c-1.69-3.25-3.71-6.38-5-9.78-3.91-10.15.83-22.52,9.9-26.5a14.17,14.17,0,0,1,18,6c2.78,5,3.21,10-2.54,14.07-1.55-4.19-3.64-7.79-8.32-4.83-4.31,2.73-3.76,7.1-1.6,11,1.57,2.82,4.61,3.54,7.77,3.66,10.62.38,19-8.1,19.37-19.75h0c1.4-11.62-4.63-20.56-16-23.59-6.68-1.78-13.13-.38-19.89.55-14.11,1.95-24.19,10.88-25.46,25.05-.11,1.14.16,3.18-.23,3.31-5.83,1.88-3.58,5.64-2.8,9.05.07.48.15.95.22,1.43.5,2.54,1,5.08,1.43,7.21-2.3,1-1.63-2.61-4.06-1.65.56,5.85,2.86,11,5.76,16,6.59,11.16,15.31,20.47,25.21,28.74,9.3,7.77,18.1,16,26.19,26.74l-8.27-3.2a2.27,2.27,0,0,0-1-.44,76.18,76.18,0,0,0-24-6.37,14.66,14.66,0,0,0-8.69-1,125.08,125.08,0,0,0-22,0c-5.08,1.49-10.63-.07-15.57,2.39-11.54,1.84-21.85,6.67-31.55,13-1.53,1-2.62,3.28-5,.61-11.4-13-25.91-21.81-41-29.71-4.08-2.13-3.88-3.51-.29-6.43,25.22-20.48,42.26-47.64,58.57-74.94,15.43-25.81,25.07-54.54,36.51-82.31.86-2.09,2.34-4.07.88-6.46h0a29.25,29.25,0,0,1,11.55-9.3c5.41-2.65,10-5.85,13.16-9.9a312.44,312.44,0,0,0,71.28,4.58S1665.72,258.31,1656.12,232.94Zm-450,154.21h0l-.07-.09.08,0v.13Zm.29-3.36h-.16c-.64.08-.21-.39.19-.37Zm.45.43a.22.22,0,0,1,0-.08.38.38,0,0,0-.1-.24l-.15-.43a.45.45,0,0,1,.24.3c0,.16,0,.31,0,.47Zm21.55-80.09a.06.06,0,0,0,0,0v0Zm1,22.34a.05.05,0,0,0,0,0s0,.06,0,.08Zm40.15,397.26c-.11-.26-.2-.52-.3-.79l.22,0c.13,0,.23,0,.35,0C1269.7,723.23,1269.62,723.48,1269.52,723.73Zm44.13-410.06h0l0,.09h0Zm-65-26.42v.07h0Zm27.87,113.3-10,3-4.12-13.74L1243,395.66l-2.68-8.94,4.62-48.46,11.86-3.56,12.82,42.71,5.37-1.61,2.82,9.41-5.36,1.61Zm-3.43-54.45c-2.85-9.51,1.63-17.82,11.22-20.7s17.92,1.59,20.77,11.09l10.79,35.94c2.85,9.5-1.62,17.82-11.22,20.7s-17.91-1.59-20.77-11.1Zm13.76,115.17h-.62l.26-.23Zm26.52,206.28c-2.56-3-2.61-7.6-6.3-9.88-1-5.36-5.06-7.22-9.66-8.47h0c-2.94-2.45-7,0-10-2a6.18,6.18,0,0,0,.07-.62c-3.11-7.54-5.69-15.3-10-22.3a6.2,6.2,0,0,1-.82.21c.09-.11.17-.21.25-.29v-1.95a10,10,0,0,0,0-3.23c0-1.17,0-2.34,0-3.52a4.61,4.61,0,0,1,.92-1.89c4-10.3,10-19.34,16.48-28.21,3-4.14,2.17-8.59-1.43-12.51-4.76-5.18-4.08-9,1.85-12.8,2.14-1.36,3.49-1.21,3.64,1.53.2,3.84,1.34,7.58,4.18,9.89,7.53,6.13,11,13.51,8.91,23.18.28,1.6.58,3.2.87,4.8l-.12,2.32a2.78,2.78,0,0,1,.17.56,2.61,2.61,0,0,0-1.46.33c-3.27,11.9-2.57,23.78.32,35.65a15.47,15.47,0,0,0,1.63.52c-.07.29-.13.58-.21.87-3.39,7.23-.37,13.82,2,20.47a6.52,6.52,0,0,0,1.07,0l-.07.13c.42,2.33.83,4.67,1.25,7C1316,671.76,1314.53,668.89,1313.38,667.55Zm5.88-395-.12-.11.22,0A1.47,1.47,0,0,1,1319.26,272.58Zm3,402.92h0Zm34.2-299-10,3-4.12-13.73-19.47,5.85-2.69-8.94,4.63-48.47,11.85-3.55,12.83,42.71,5.36-1.61,2.82,9.4-5.36,1.62Zm99.83,317.79c.16.14.3.28.47.42a5.53,5.53,0,0,1-1.31.49A9,9,0,0,0,1456.33,694.33Zm-49.63-320.5a2,2,0,0,0-.18-.13l.34-.19Zm6.61,223.3s0,0,0,0h.08ZM1430,335.88h0Zm120.53,39.18-.07-.07.09-.11C1550.49,374.94,1550.49,375,1550.48,375.06Zm7.39,22.28q.69-.82,1.11-1.44a12.54,12.54,0,0,1,.4,1.27A2.67,2.67,0,0,1,1557.87,397.34Zm2.1,206.37s0,0,0-.05l0,.05Zm26.48-147.46,0,0v0ZM1556.74,594.7c.91-5.47,2-10.77,5.59-15.37,4.78-6.18,8.92-12.84,13.14-19.42,10.88-17,19.56-34.86,22.67-55.08,1.22-8,3-15.84,6.85-23.05a6.77,6.77,0,0,0-.92-8.27c-2.69-1.7.22-1.09.54-1.18,1.86-.52,2.4-1.48,2.07-2.8.5,1,1,2,1.39,3.09,2.43,7.29,2.74,14.87,3.06,22.45,1.19,27.89-7.64,52.7-22.7,75.6a6.51,6.51,0,0,1-.92.23,124,124,0,0,0-18.93,21.55l-.06.35a16.75,16.75,0,0,0-9.54,7.5c-1.24-1.38-1.46-3.36-2.46-4.88C1556.59,595.18,1556.66,594.93,1556.74,594.7Zm-26,45,0,0h0ZM1524,450.77a1.92,1.92,0,0,1,.11.4l-.57-.9A2.7,2.7,0,0,1,1524,450.77ZM1462.57,590a8.08,8.08,0,0,1,4.3-5.92c5-2.61,9-6.33,12.84-10.3a16.84,16.84,0,0,1,7-4.32A244,244,0,0,0,1527,552.26c-5.43,9.66-4.85,18.39-.94,27.18s5.75,17.81,1.64,27.13l.2.13c-4,3.42-6.1,8-8,12.7h0a6.43,6.43,0,0,0-3-.35,5.44,5.44,0,0,0-2.09.83c-18.35-3.55-35.28-10-48.52-24.09l.17-.26c-.46-2.62-1.21-5-4.16-5.44Z"/><polygon class="cls-127" points="1329.51 359.42 1339.58 356.39 1331.81 330.52 1329.51 359.42"/><polygon class="cls-127" points="1249.55 383.43 1259.61 380.4 1251.84 354.53 1249.55 383.43"/><rect class="cls-127" width="1920" height="105"/></svg>