<svg id="Capa_1" data-name="Capa 1" xmlns="http://www.w3.org/2000/svg" xmlns:xlink="http://www.w3.org/1999/xlink" viewBox="0 0 52 52.5"><defs><style>.cls-1{fill:none;}.cls-2{clip-path:url(#clip-path);}.cls-3{fill:#cbd4df;}.cls-4{fill:#617884;}.cls-5,.cls-6{fill:#1da1f3;}.cls-5{stroke:#fff;stroke-linecap:round;stroke-linejoin:round;stroke-width:0.57px;}</style><clipPath id="clip-path" transform="translate(-109.41 -133.5)"><circle class="cls-1" cx="135.41" cy="159.5" r="26"/></clipPath></defs><g class="cls-2"><circle class="cls-3" cx="26" cy="26" r="26"/><path class="cls-4" d="M25.85,11.5h0A10.06,10.06,0,0,1,35.91,21.56v3.73a8,8,0,0,1-8,8H23.8a8,8,0,0,1-8-8V21.56A10.06,10.06,0,0,1,25.85,11.5Z"/><path class="cls-4" d="M152.73,186a17.38,17.38,0,0,0-17.32-16h0a17.38,17.38,0,0,0-17.33,16Z" transform="translate(-109.41 -133.5)"/><path class="cls-5" d="M128,182.46a6.71,6.71,0,0,0,4.48-1.12,3.21,3.21,0,0,1-2.12-.83,2.55,2.55,0,0,1-.71-1,3.52,3.52,0,0,0,1.37-.05,3.1,3.1,0,0,1-1.92-1.13,2.48,2.48,0,0,1-.53-1.54,3.37,3.37,0,0,0,1.37.33,2.65,2.65,0,0,1-1.32-1.93,2.37,2.37,0,0,1,.39-1.65s0,0,0,0a8.66,8.66,0,0,0,3.8,2.34,8.26,8.26,0,0,0,1.49.34,7,7,0,0,0,.91.09c.05,0,.06,0,.05,0a2,2,0,0,1-.07-.64,2.49,2.49,0,0,1,.57-1.5,3.09,3.09,0,0,1,1.78-1.05,3.37,3.37,0,0,1,2.89.74.1.1,0,0,0,.1,0,6.75,6.75,0,0,0,1.82-.62h0a2.39,2.39,0,0,1-.51.83,3.31,3.31,0,0,1-.8.64,6.46,6.46,0,0,0,1.72-.42l0,.06a5.9,5.9,0,0,1-1.42,1.3h0a0,0,0,0,0,0,.06c0,.17,0,.34,0,.51a6.89,6.89,0,0,1-.67,2.74,8,8,0,0,1-2.43,3,8.43,8.43,0,0,1-3.12,1.45,9.85,9.85,0,0,1-2.4.29c-.31,0-.62,0-.93,0a9.8,9.8,0,0,1-2.89-.71c-.29-.13-.57-.26-.85-.42Z" transform="translate(-109.41 -133.5)"/><path class="cls-6" d="M128,182.46a6.71,6.71,0,0,0,4.48-1.12,3.21,3.21,0,0,1-2.12-.83,2.55,2.55,0,0,1-.71-1,3.52,3.52,0,0,0,1.37-.05,3.1,3.1,0,0,1-1.92-1.13,2.48,2.48,0,0,1-.53-1.54,3.37,3.37,0,0,0,1.37.33,2.65,2.65,0,0,1-1.32-1.93,2.37,2.37,0,0,1,.39-1.65s0,0,0,0a8.66,8.66,0,0,0,3.8,2.34,8.26,8.26,0,0,0,1.49.34,7,7,0,0,0,.91.09c.05,0,.06,0,.05,0a2,2,0,0,1-.07-.64,2.49,2.49,0,0,1,.57-1.5,3.09,3.09,0,0,1,1.78-1.05,3.37,3.37,0,0,1,2.89.74.1.1,0,0,0,.1,0,6.75,6.75,0,0,0,1.82-.62h0a2.39,2.39,0,0,1-.51.83,3.31,3.31,0,0,1-.8.64,6.46,6.46,0,0,0,1.72-.42l0,.06a5.9,5.9,0,0,1-1.42,1.3h0a0,0,0,0,0,0,.06c0,.17,0,.34,0,.51a6.89,6.89,0,0,1-.67,2.74,8,8,0,0,1-2.43,3,8.43,8.43,0,0,1-3.12,1.45,9.85,9.85,0,0,1-2.4.29c-.31,0-.62,0-.93,0a9.8,9.8,0,0,1-2.89-.71c-.29-.13-.57-.26-.85-.42Z" transform="translate(-109.41 -133.5)"/></g></svg>